<svg width="20" height="20" viewBox="0 0 20 20" fill="none" xmlns="http://www.w3.org/2000/svg">
<path d="M16.0083 3.99174C15.0198 3.00324 13.417 3.00324 12.4285 3.99174L4.156 12.2485C3.9295 12.475 3.77875 12.7652 3.724 13.081L3.26275 15.7562C3.163 16.3352 3.66625 16.8377 4.24525 16.7372L6.889 16.2775C7.2025 16.2227 7.492 16.0727 7.717 15.8477L16.0083 7.57074C16.9975 6.58224 16.9975 4.98024 16.0083 3.99174Z" fill="#DBDBDB"/>
<path d="M10.8062 5.60799L14.386 9.18774L15.874 7.70499L12.2942 4.12524L10.8062 5.60799Z" fill="#6C6C6C"/>
<path d="M3.544 14.125L3.26275 15.7562C3.163 16.3352 3.66625 16.8377 4.24525 16.7372L5.8735 16.4537L3.544 14.125Z" fill="#6C6C6C"/>
</svg>
