<svg width="20" height="20" viewBox="0 0 20 20" fill="none" xmlns="http://www.w3.org/2000/svg">
<path d="M16.375 3.25C16.0855 3.25 3.9145 3.25 3.625 3.25C3.004 3.25 2.5 3.754 2.5 4.375C2.5 4.996 3.004 5.5 3.625 5.5C3.9145 5.5 16.0855 5.5 16.375 5.5C16.996 5.5 17.5 4.996 17.5 4.375C17.5 3.754 16.996 3.25 16.375 3.25Z" fill="#6C6C6C"/>
<path d="M4 5.5L6.70675 8.74825C7.381 9.55675 7.75 10.5767 7.75 11.629V15.682C7.75 16.4155 8.28025 17.041 9.00325 17.1617L10.9397 17.4842C11.626 17.599 12.25 17.0702 12.25 16.375V11.6297C12.25 10.5767 12.619 9.5575 13.2932 8.749L16 5.5H4Z" fill="#DBDBDB"/>
</svg>
