<svg width="20" height="20" viewBox="0 0 20 20" fill="none" xmlns="http://www.w3.org/2000/svg">
<g clip-path="url(#clip0_190_3646)">
<path d="M5 2.5H15C16.3808 2.5 17.5 3.61917 17.5 5V15C17.5 16.3808 16.3808 17.5 15 17.5H5C3.61917 17.5 2.5 16.3808 2.5 15V5C2.5 3.61917 3.61917 2.5 5 2.5Z" fill="#DBDBDB"/>
<path d="M8.33333 8.81586V17.1492C8.33333 18.07 9.07916 18.8159 9.99999 18.8159C10.9208 18.8159 11.6667 18.07 11.6667 17.1492V8.81586H8.33333Z" fill="#6C6C6C"/>
<path d="M13.4425 9.99999C14.085 9.99999 14.4083 9.22499 13.9558 8.76832L10.7425 5.52416C10.3333 5.11166 9.66667 5.11166 9.2575 5.52416L6.04417 8.76832C5.59167 9.22499 5.915 9.99999 6.5575 9.99999H13.4425Z" fill="#6C6C6C"/>
</g>
<defs>
<clipPath id="clip0_190_3646">
<rect width="20" height="20" fill="white"/>
</clipPath>
</defs>
</svg>
