<svg width="20" height="21" viewBox="0 0 20 21" fill="none" xmlns="http://www.w3.org/2000/svg">
<path d="M15.3333 8.90002C14.909 8.90002 14.502 9.0686 14.2019 9.36865C13.9019 9.66871 13.7333 10.0757 13.7333 10.5C13.7333 10.9244 13.9019 11.3313 14.2019 11.6314C14.502 11.9315 14.909 12.1 15.3333 12.1C15.7577 12.1 16.1646 11.9315 16.4647 11.6314C16.7647 11.3313 16.9333 10.9244 16.9333 10.5C16.9333 10.0757 16.7647 9.66871 16.4647 9.36865C16.1646 9.0686 15.7577 8.90002 15.3333 8.90002ZM9.99998 8.90002C9.57564 8.90002 9.16867 9.0686 8.86861 9.36865C8.56855 9.66871 8.39998 10.0757 8.39998 10.5C8.39998 10.9244 8.56855 11.3313 8.86861 11.6314C9.16867 11.9315 9.57564 12.1 9.99998 12.1C10.4243 12.1 10.8313 11.9315 11.1314 11.6314C11.4314 11.3313 11.6 10.9244 11.6 10.5C11.6 10.0757 11.4314 9.66871 11.1314 9.36865C10.8313 9.0686 10.4243 8.90002 9.99998 8.90002ZM4.66665 8.90002C4.2423 8.90002 3.83534 9.0686 3.53528 9.36865C3.23522 9.66871 3.06665 10.0757 3.06665 10.5C3.06665 10.9244 3.23522 11.3313 3.53528 11.6314C3.83534 11.9315 4.2423 12.1 4.66665 12.1C5.091 12.1 5.49796 11.9315 5.79802 11.6314C6.09808 11.3313 6.26665 10.9244 6.26665 10.5C6.26665 10.0757 6.09808 9.66871 5.79802 9.36865C5.49796 9.0686 5.091 8.90002 4.66665 8.90002Z" fill="#474B53"/>
</svg>
