<svg width="20" height="20" viewBox="0 0 20 20" fill="none" xmlns="http://www.w3.org/2000/svg">
<g clip-path="url(#clip0_175_2462)">
<path d="M6.66667 3.33337C5.74583 3.33337 5 4.07921 5 5.00004V15C5 15.9209 5.74583 16.6667 6.66667 16.6667C7.5875 16.6667 8.33333 15.9209 8.33333 15V5.00004C8.33333 4.07921 7.5875 3.33337 6.66667 3.33337Z" fill="#6C6C6C"/>
<path d="M13.3334 3.33337C12.4126 3.33337 11.6667 4.07921 11.6667 5.00004V15C11.6667 15.9209 12.4126 16.6667 13.3334 16.6667C14.2542 16.6667 15.0001 15.9209 15.0001 15V5.00004C15.0001 4.07921 14.2542 3.33337 13.3334 3.33337Z" fill="#6C6C6C"/>
</g>
<defs>
<clipPath id="clip0_175_2462">
<rect width="20" height="20" fill="white"/>
</clipPath>
</defs>
</svg>
