<svg width="20" height="20" viewBox="0 0 20 20" fill="none" xmlns="http://www.w3.org/2000/svg">
<g clip-path="url(#clip0_324_3052)">
<path d="M10.0001 18.3334C14.6025 18.3334 18.3334 14.6024 18.3334 10C18.3334 5.39765 14.6025 1.66669 10.0001 1.66669C5.39771 1.66669 1.66675 5.39765 1.66675 10C1.66675 14.6024 5.39771 18.3334 10.0001 18.3334Z" fill="#DBDBDB"/>
<path d="M14.1667 10.8334H5.83333C5.37333 10.8334 5 10.46 5 10C5 9.54002 5.37333 9.16669 5.83333 9.16669H14.1667C14.6267 9.16669 15 9.54002 15 10C15 10.46 14.6267 10.8334 14.1667 10.8334Z" fill="#474B53"/>
<path d="M9.16675 14.1667V5.83333C9.16675 5.37333 9.54008 5 10.0001 5C10.4601 5 10.8334 5.37333 10.8334 5.83333V14.1667C10.8334 14.6267 10.4601 15 10.0001 15C9.54008 15 9.16675 14.6267 9.16675 14.1667Z" fill="#474B53"/>
</g>
<defs>
<clipPath id="clip0_324_3052">
<rect width="20" height="20" fill="white"/>
</clipPath>
</defs>
</svg>
