<svg width="20" height="21" viewBox="0 0 20 21" fill="none" xmlns="http://www.w3.org/2000/svg">
<g clip-path="url(#clip0_245_25741)">
<path d="M9.98958 2.49087C9.813 2.49363 9.64473 2.56633 9.52169 2.69303C9.39866 2.81972 9.33092 2.99006 9.33333 3.16665V10.5C9.33209 10.5883 9.34841 10.676 9.38135 10.758C9.41429 10.84 9.4632 10.9146 9.52523 10.9775C9.58726 11.0404 9.66117 11.0904 9.74268 11.1245C9.82418 11.1586 9.91165 11.1761 10 11.1761C10.0884 11.1761 10.1758 11.1586 10.2573 11.1245C10.3388 11.0904 10.4127 11.0404 10.4748 10.9775C10.5368 10.9146 10.5857 10.84 10.6187 10.758C10.6516 10.676 10.6679 10.5883 10.6667 10.5V3.16665C10.6679 3.07745 10.6512 2.98892 10.6176 2.9063C10.584 2.82367 10.5341 2.74863 10.471 2.68561C10.4079 2.6226 10.3327 2.57289 10.25 2.53944C10.1673 2.50599 10.0788 2.48947 9.98958 2.49087ZM6.66406 3.30857C6.55915 3.31016 6.4561 3.33648 6.36328 3.3854C3.77635 4.7094 2 7.39853 2 10.5C2 14.9103 5.58969 18.5 10 18.5C14.4103 18.5 18 14.9103 18 10.5C18 7.39853 16.2236 4.7094 13.6367 3.3854C13.4792 3.30493 13.2963 3.29032 13.128 3.34478C12.9598 3.39923 12.82 3.51829 12.7396 3.67576C12.6591 3.83323 12.6445 4.01622 12.699 4.18447C12.7534 4.35271 12.8725 4.49243 13.03 4.5729C15.187 5.6769 16.6667 7.90676 16.6667 10.5C16.6667 14.1897 13.6897 17.1666 10 17.1666C6.31031 17.1666 3.33333 14.1897 3.33333 10.5C3.33333 7.90676 4.81298 5.6769 6.97005 4.5729C7.10573 4.50582 7.21454 4.39457 7.2786 4.25745C7.34267 4.12033 7.35818 3.96549 7.32258 3.81839C7.28697 3.67129 7.20238 3.54067 7.08271 3.44802C6.96303 3.35537 6.81539 3.30619 6.66406 3.30857Z" fill="#474B53"/>
</g>
<defs>
<clipPath id="clip0_245_25741">
<rect width="20" height="20" fill="white" transform="translate(0 0.5)"/>
</clipPath>
</defs>
</svg>
