<svg width="20" height="21" viewBox="0 0 20 21" fill="none" xmlns="http://www.w3.org/2000/svg">
<g clip-path="url(#clip0_245_2152)">
<path d="M16.6537 3.16013C16.6289 3.16091 16.6041 3.16309 16.5795 3.16664H12.0001C11.9117 3.16539 11.824 3.18171 11.742 3.21465C11.6601 3.2476 11.5854 3.2965 11.5225 3.35853C11.4596 3.42056 11.4097 3.49448 11.3756 3.57598C11.3415 3.65749 11.3239 3.74496 11.3239 3.83331C11.3239 3.92166 11.3415 4.00913 11.3756 4.09063C11.4097 4.17213 11.4596 4.24605 11.5225 4.30808C11.5854 4.37011 11.6601 4.41902 11.742 4.45196C11.824 4.4849 11.9117 4.50122 12.0001 4.49997H15.0574L4.00007 15.5573V12.5C4.00129 12.4108 3.9846 12.3222 3.95099 12.2396C3.91738 12.157 3.86753 12.082 3.8044 12.0189C3.74126 11.9559 3.66612 11.9062 3.58343 11.8728C3.50074 11.8393 3.41218 11.8228 3.32299 11.8242C3.1464 11.827 2.97813 11.8997 2.85509 12.0264C2.73206 12.1531 2.66432 12.3234 2.66674 12.5V17.0651C2.64907 17.1699 2.65674 17.2775 2.6891 17.3788C2.72146 17.48 2.77757 17.5721 2.85275 17.6473C2.92793 17.7225 3.02001 17.7786 3.12129 17.8109C3.22257 17.8433 3.33012 17.851 3.43496 17.8333H8.00007C8.08841 17.8346 8.17612 17.8182 8.2581 17.7853C8.34008 17.7523 8.41469 17.7034 8.4776 17.6414C8.54052 17.5794 8.59047 17.5055 8.62457 17.424C8.65867 17.3425 8.67623 17.255 8.67623 17.1666C8.67623 17.0783 8.65867 16.9908 8.62457 16.9093C8.59047 16.8278 8.54052 16.7539 8.4776 16.6919C8.41469 16.6298 8.34008 16.5809 8.2581 16.548C8.17612 16.515 8.08841 16.4987 8.00007 16.5H4.94278L16.0001 5.44268V8.49997C15.9988 8.58831 16.0151 8.67602 16.0481 8.758C16.081 8.83998 16.1299 8.91459 16.192 8.97751C16.254 9.04042 16.3279 9.09038 16.4094 9.12448C16.4909 9.15857 16.5784 9.17613 16.6667 9.17613C16.7551 9.17613 16.8426 9.15857 16.9241 9.12448C17.0056 9.09038 17.0795 9.04042 17.1415 8.97751C17.2035 8.91459 17.2524 8.83998 17.2854 8.758C17.3183 8.67602 17.3347 8.58831 17.3334 8.49997V3.91794C17.3467 3.82196 17.3389 3.72423 17.3105 3.63157C17.2822 3.53892 17.234 3.45355 17.1693 3.38141C17.1046 3.30928 17.025 3.25211 16.9359 3.2139C16.8469 3.17568 16.7506 3.15733 16.6537 3.16013Z" fill="#474B53"/>
</g>
<defs>
<clipPath id="clip0_245_2152">
<rect width="20" height="20" fill="white" transform="translate(0 0.5)"/>
</clipPath>
</defs>
</svg>
