<svg width="20" height="21" viewBox="0 0 20 21" fill="none" xmlns="http://www.w3.org/2000/svg">
<g clip-path="url(#clip0_245_2474)">
<path d="M10 2.50001C9.91166 2.49876 9.82395 2.51508 9.74197 2.54802C9.65999 2.58096 9.58538 2.62987 9.52247 2.6919C9.45955 2.75393 9.4096 2.82784 9.3755 2.90935C9.3414 2.99085 9.32384 3.07832 9.32384 3.16667C9.32384 3.25502 9.3414 3.34249 9.3755 3.424C9.4096 3.5055 9.45955 3.57942 9.52247 3.64145C9.58538 3.70348 9.65999 3.75238 9.74197 3.78533C9.82395 3.81827 9.91166 3.83459 10 3.83334C13.6897 3.83334 16.6667 6.81032 16.6667 10.5C16.6667 14.1897 13.6897 17.1667 10 17.1667C6.31031 17.1667 3.33333 14.1897 3.33333 10.5C3.33333 8.9335 3.87236 7.4979 4.77344 6.36198L6 7.83334L7.33333 3.16667L2.66667 3.83334L3.91146 5.32683C2.72444 6.72338 2 8.52786 2 10.5C2 14.9103 5.58969 18.5 10 18.5C14.4103 18.5 18 14.9103 18 10.5C18 6.08969 14.4103 2.50001 10 2.50001Z" fill="#474B53"/>
</g>
<defs>
<clipPath id="clip0_245_2474">
<rect width="20" height="20" fill="white" transform="translate(0 0.5)"/>
</clipPath>
</defs>
</svg>
