<svg width="76" height="76" viewBox="0 0 76 76" fill="none" xmlns="http://www.w3.org/2000/svg">
<path d="M46.8747 2.53333C32.1817 2.53333 20.2699 14.4452 20.2699 29.1381C20.2699 43.831 32.1817 55.7428 46.8747 55.7428C61.5676 55.7428 73.4794 43.831 73.4794 29.1381C73.4794 14.4452 61.5676 2.53333 46.8747 2.53333ZM55.7429 27.3644C51.8231 27.3644 48.6483 24.1896 48.6483 20.2698C48.6483 16.3501 51.8231 13.1752 55.7429 13.1752C59.6627 13.1752 62.8375 16.3501 62.8375 20.2698C62.8375 24.1896 59.6627 27.3644 55.7429 27.3644Z" fill="#4671F6"/>
<path d="M22.3521 39.4714L3.57268 58.2508C2.90579 58.9177 2.53333 59.8187 2.53333 60.7587V69.932C2.53333 71.8901 4.12252 73.4793 6.08062 73.4793H15.2539C16.194 73.4793 17.0985 73.1069 17.7619 72.44L22.3485 67.8533C23.2886 66.9133 23.8171 65.6363 23.8171 64.306C23.8171 61.5356 26.0626 59.2901 28.833 59.2901C30.1632 59.2901 31.4403 58.7616 32.3803 57.8216L36.5413 53.6606C30.1561 50.9682 25.0445 45.853 22.3521 39.4714Z" fill="#A4BCFD"/>
</svg>
