<svg width="87" height="90" viewBox="0 0 87 90" fill="none" xmlns="http://www.w3.org/2000/svg">
<circle cx="41.5" cy="45" r="41" fill="url(#paint0_linear_343_24148)"/>
<mask id="path-2-outside-1_343_24148" maskUnits="userSpaceOnUse" x="18.5" y="0" width="68" height="90" fill="black">
<rect fill="white" x="18.5" width="68" height="90"/>
<path d="M41.5 4C47.6727 4 53.7657 5.39374 59.3245 8.07726C64.8833 10.7608 69.7644 14.6648 73.6038 19.4981C77.4432 24.3314 80.1417 29.9693 81.498 35.9911C82.8543 42.0129 82.8334 48.2632 81.4369 54.2758C80.0404 60.2884 77.3044 65.9081 73.4328 70.7157C69.5612 75.5233 64.6541 79.3946 59.0775 82.0409C53.5009 84.6873 47.3987 86.0403 41.2262 85.9991C35.0537 85.9579 28.9701 84.5235 23.4294 81.8029L41.5 45V4Z"/>
</mask>
<path d="M41.5 4C47.6727 4 53.7657 5.39374 59.3245 8.07726C64.8833 10.7608 69.7644 14.6648 73.6038 19.4981C77.4432 24.3314 80.1417 29.9693 81.498 35.9911C82.8543 42.0129 82.8334 48.2632 81.4369 54.2758C80.0404 60.2884 77.3044 65.9081 73.4328 70.7157C69.5612 75.5233 64.6541 79.3946 59.0775 82.0409C53.5009 84.6873 47.3987 86.0403 41.2262 85.9991C35.0537 85.9579 28.9701 84.5235 23.4294 81.8029L41.5 45V4Z" fill="#3364FC"/>
<path d="M41.5 4C47.6727 4 53.7657 5.39374 59.3245 8.07726C64.8833 10.7608 69.7644 14.6648 73.6038 19.4981C77.4432 24.3314 80.1417 29.9693 81.498 35.9911C82.8543 42.0129 82.8334 48.2632 81.4369 54.2758C80.0404 60.2884 77.3044 65.9081 73.4328 70.7157C69.5612 75.5233 64.6541 79.3946 59.0775 82.0409C53.5009 84.6873 47.3987 86.0403 41.2262 85.9991C35.0537 85.9579 28.9701 84.5235 23.4294 81.8029L41.5 45V4Z" stroke="white" stroke-width="8" stroke-linejoin="round" mask="url(#path-2-outside-1_343_24148)"/>
<defs>
<linearGradient id="paint0_linear_343_24148" x1="41.5" y1="4" x2="41.5" y2="86" gradientUnits="userSpaceOnUse">
<stop stop-color="#BDCEEE"/>
<stop offset="1" stop-color="#F0F5FF"/>
</linearGradient>
</defs>
</svg>
