<svg width="48" height="48" viewBox="0 0 48 48" fill="none" xmlns="http://www.w3.org/2000/svg">
<g filter="url(#filter0_d_101_3945)">
<path d="M8 38V10C8 6.686 10.686 4 14 4H26.7574C27.553 4 28.3161 4.31607 28.8787 4.87868L39.1213 15.1213C39.6839 15.6839 40 16.447 40 17.2426V38C40 41.314 37.314 44 34 44H14C10.686 44 8 41.314 8 38Z" fill="white"/>
<path d="M8.5 38V10C8.5 6.96214 10.9621 4.5 14 4.5H26.7574C27.4204 4.5 28.0563 4.76339 28.5251 5.23223L38.7678 15.4749C39.2366 15.9437 39.5 16.5796 39.5 17.2426V38C39.5 41.0379 37.0379 43.5 34 43.5H14C10.9621 43.5 8.5 41.0379 8.5 38Z" stroke="#DBDBDB"/>
</g>
<rect x="16" y="23" width="16" height="2" rx="1" fill="#6C6C6C"/>
<rect x="16" y="28" width="16" height="2" rx="1" fill="#6C6C6C"/>
<rect x="16" y="33" width="8" height="2" rx="1" fill="#6C6C6C"/>
<rect x="16" y="14" width="8" height="2" rx="1" fill="#DBDBDB"/>
<defs>
<filter id="filter0_d_101_3945" x="7" y="4" width="34" height="42" filterUnits="userSpaceOnUse" color-interpolation-filters="sRGB">
<feFlood flood-opacity="0" result="BackgroundImageFix"/>
<feColorMatrix in="SourceAlpha" type="matrix" values="0 0 0 0 0 0 0 0 0 0 0 0 0 0 0 0 0 0 127 0" result="hardAlpha"/>
<feOffset dy="1"/>
<feGaussianBlur stdDeviation="0.5"/>
<feComposite in2="hardAlpha" operator="out"/>
<feColorMatrix type="matrix" values="0 0 0 0 0 0 0 0 0 0 0 0 0 0 0 0 0 0 0.1 0"/>
<feBlend mode="normal" in2="BackgroundImageFix" result="effect1_dropShadow_101_3945"/>
<feBlend mode="normal" in="SourceGraphic" in2="effect1_dropShadow_101_3945" result="shape"/>
</filter>
</defs>
</svg>
