<svg width="22" height="22" viewBox="0 0 22 22" fill="none" xmlns="http://www.w3.org/2000/svg">
<rect width="22" height="22" rx="11" fill="#4671F6"/>
<rect x="4" y="3.5" width="14" height="15" fill="white"/>
<path d="M16.5556 3H5.44444C4.09689 3 3 4.09689 3 5.44444V16.5556C3 17.9031 4.09689 19 5.44444 19H16.5556C17.9031 19 19 17.9031 19 16.5556V5.44444C19 4.09689 17.9031 3 16.5556 3ZM16.1382 8.58267L9.916 14.8049C9.78578 14.9351 9.61511 15 9.44444 15C9.27378 15 9.10311 14.9351 8.97289 14.8049L6.30622 12.1382C6.04578 11.8778 6.04578 11.456 6.30622 11.1956C6.56667 10.9351 6.98844 10.9351 7.24889 11.1956L9.444 13.3907L15.1947 7.64C15.4551 7.37956 15.8769 7.37956 16.1373 7.64C16.3978 7.90044 16.3982 8.32222 16.1382 8.58267Z" fill="#4671F6"/>
</svg>
