<svg width="20" height="20" viewBox="0 0 20 20" fill="none" xmlns="http://www.w3.org/2000/svg">
<path d="M15.3333 8.40002C14.909 8.40002 14.502 8.5686 14.2019 8.86865C13.9019 9.16871 13.7333 9.57568 13.7333 10C13.7333 10.4244 13.9019 10.8313 14.2019 11.1314C14.502 11.4315 14.909 11.6 15.3333 11.6C15.7577 11.6 16.1646 11.4315 16.4647 11.1314C16.7647 10.8313 16.9333 10.4244 16.9333 10C16.9333 9.57568 16.7647 9.16871 16.4647 8.86865C16.1646 8.5686 15.7577 8.40002 15.3333 8.40002ZM9.99998 8.40002C9.57564 8.40002 9.16867 8.5686 8.86861 8.86865C8.56855 9.16871 8.39998 9.57568 8.39998 10C8.39998 10.4244 8.56855 10.8313 8.86861 11.1314C9.16867 11.4315 9.57564 11.6 9.99998 11.6C10.4243 11.6 10.8313 11.4315 11.1314 11.1314C11.4314 10.8313 11.6 10.4244 11.6 10C11.6 9.57568 11.4314 9.16871 11.1314 8.86865C10.8313 8.5686 10.4243 8.40002 9.99998 8.40002ZM4.66665 8.40002C4.2423 8.40002 3.83534 8.5686 3.53528 8.86865C3.23522 9.16871 3.06665 9.57568 3.06665 10C3.06665 10.4244 3.23522 10.8313 3.53528 11.1314C3.83534 11.4315 4.2423 11.6 4.66665 11.6C5.091 11.6 5.49796 11.4315 5.79802 11.1314C6.09808 10.8313 6.26665 10.4244 6.26665 10C6.26665 9.57568 6.09808 9.16871 5.79802 8.86865C5.49796 8.5686 5.091 8.40002 4.66665 8.40002Z" fill="#858A94"/>
</svg>
