<svg width="640" height="344" viewBox="0 0 640 344" fill="none" xmlns="http://www.w3.org/2000/svg">
<mask id="mask0_692_36950" style="mask-type:alpha" maskUnits="userSpaceOnUse" x="23" y="184" width="238" height="159">
<path fill-rule="evenodd" clip-rule="evenodd" d="M106.899 274.152L56.6465 215.811L23.2094 229.151L96.9563 314.769L130.393 301.429L175.905 283.272L226.81 342.371L260.247 329.03L209.342 269.932L238.135 258.444L214.641 231.168L185.848 242.655L135.595 184.314L102.158 197.654L152.411 255.995L106.899 274.152Z" fill="#4671F6"/>
</mask>
<g mask="url(#mask0_692_36950)">
<path fill-rule="evenodd" clip-rule="evenodd" d="M106.899 274.152L56.6465 215.811L23.2094 229.151L96.9563 314.769L130.393 301.429L175.905 283.272L226.81 342.371L260.247 329.03L209.342 269.932L238.135 258.444L214.641 231.168L185.848 242.655L135.595 184.314L102.158 197.654L152.411 255.995L106.899 274.152Z" fill="#4671F6"/>
<rect x="15.78" y="213.868" width="41" height="66" fill="#7294FF"/>
<rect x="94.78" y="169.868" width="41" height="66" fill="#7294FF"/>
<path d="M107.28 255.492L152.28 255.992L152.28 319.492L107.28 319.492L107.28 255.492Z" fill="#7294FF"/>
</g>
<mask id="mask1_692_36950" style="mask-type:alpha" maskUnits="userSpaceOnUse" x="397" y="35" width="238" height="159">
<path fill-rule="evenodd" clip-rule="evenodd" d="M480.899 125.152L430.647 66.8112L397.209 80.1512L470.956 165.769L504.393 152.429L549.905 134.272L600.81 193.371L634.247 180.03L583.342 120.931L612.135 109.444L588.641 82.1678L559.848 93.655L509.595 35.3138L476.158 48.6538L526.411 106.995L480.899 125.152Z" fill="#4671F6"/>
</mask>
<g mask="url(#mask1_692_36950)">
<path fill-rule="evenodd" clip-rule="evenodd" d="M480.899 125.152L430.647 66.8112L397.209 80.1512L470.956 165.769L504.393 152.429L549.905 134.272L600.81 193.371L634.247 180.03L583.342 120.931L612.135 109.444L588.641 82.1678L559.848 93.655L509.595 35.3138L476.158 48.6538L526.411 106.995L480.899 125.152Z" fill="#4671F6"/>
<rect x="389.78" y="64.868" width="41" height="66" fill="#7294FF"/>
<rect x="468.78" y="20.868" width="41" height="66" fill="#7294FF"/>
<path d="M481.28 106.492L526.28 106.992L526.28 170.492L481.28 170.492L481.28 106.492Z" fill="#7294FF"/>
</g>
<mask id="mask2_692_36950" style="mask-type:alpha" maskUnits="userSpaceOnUse" x="192" y="90" width="303" height="217">
<rect width="191" height="191" transform="matrix(0.652627 0.757679 -0.92881 0.370557 369.655 90.9333)" fill="#4671F6"/>
</mask>
<g mask="url(#mask2_692_36950)">
<rect width="191" height="191" transform="matrix(0.652627 0.757679 -0.92881 0.370557 369.655 90.9333)" fill="#4671F6"/>
<rect x="186.625" y="85.6695" width="183" height="230" fill="#7294FF"/>
</g>
<path d="M334.813 45.7587L342.125 41.6698L387.996 278.071L380.222 281.276L334.813 45.7587Z" fill="#474B53"/>
<path d="M308.125 41.6698L334.813 45.7587L380.222 281.276L359.209 289.559L308.125 41.6698Z" fill="#6C6C6C"/>
<path d="M307.974 41.7587L334.813 45.7587L341.879 41.931L314.654 38.0692L307.974 41.7587Z" fill="#858A94"/>
<rect width="112" height="8" rx="4" transform="matrix(0.92388 -0.382683 2.13199e-08 1 226 123.412)" fill="#D9D9D9"/>
<rect width="112" height="8" rx="4" transform="matrix(0.92388 -0.382683 2.13199e-08 1 236 183.412)" fill="#D9D9D9"/>
<path d="M263 234.912L345.837 201.997C347.855 201.195 349.474 202.305 349.474 204.489C349.474 206.723 347.785 209.223 345.722 210.043L263 242.912L263 234.912Z" fill="#D9D9D9"/>
<path d="M298.8 285.412L355.812 262.052C357.837 261.223 359.474 262.324 359.474 264.516C359.474 266.736 357.797 269.222 355.746 270.041L303.5 290.912L298.8 285.412Z" fill="#D9D9D9"/>
<path d="M230.813 83.7587L238.125 79.6698L270.5 252.412L261 241.412L230.813 83.7587Z" fill="#474B53"/>
<path d="M204.125 79.6698L230.813 83.7587L261 241.412L231 206.912L204.125 79.6698Z" fill="#6C6C6C"/>
<path d="M203.974 79.7587L230.813 83.7587L238.1 79.7122L210.654 76.0692L203.974 79.7587Z" fill="#858A94"/>
</svg>
