<svg width="16" height="16" viewBox="0 0 16 16" fill="none" xmlns="http://www.w3.org/2000/svg">
<path d="M3.5201 9.91998C2.92369 9.91998 2.62549 9.91998 2.39026 9.82254C2.07663 9.69263 1.82744 9.44345 1.69753 9.12981C1.6001 8.89458 1.6001 8.59638 1.6001 7.99998V3.64798C1.6001 2.93111 1.6001 2.57267 1.73961 2.29887C1.86233 2.05802 2.05814 1.86221 2.29899 1.73949C2.5728 1.59998 2.93123 1.59998 3.6481 1.59998H8.0001C8.5965 1.59998 8.89471 1.59998 9.12993 1.69741C9.44357 1.82732 9.69275 2.0765 9.82266 2.39014C9.9201 2.62537 9.9201 2.92357 9.9201 3.51998M8.1281 14.4H12.3521C13.069 14.4 13.4274 14.4 13.7012 14.2605C13.9421 14.1377 14.1379 13.9419 14.2606 13.7011C14.4001 13.4273 14.4001 13.0688 14.4001 12.352V8.12798C14.4001 7.41111 14.4001 7.05267 14.2606 6.77887C14.1379 6.53802 13.9421 6.34221 13.7012 6.21949C13.4274 6.07998 13.069 6.07998 12.3521 6.07998H8.1281C7.41123 6.07998 7.0528 6.07998 6.77899 6.21949C6.53814 6.34221 6.34233 6.53802 6.21961 6.77887C6.0801 7.05267 6.0801 7.41111 6.0801 8.12798V12.352C6.0801 13.0688 6.0801 13.4273 6.21961 13.7011C6.34233 13.9419 6.53814 14.1377 6.77899 14.2605C7.0528 14.4 7.41123 14.4 8.1281 14.4Z" stroke="#474B53" stroke-linecap="round" stroke-linejoin="round"/>
</svg>
