<svg width="20" height="20" viewBox="0 0 20 20" fill="none" xmlns="http://www.w3.org/2000/svg">
<path d="M3.33337 15.8334V4.16675C3.33337 2.78591 4.45254 1.66675 5.83337 1.66675H11.6667L16.6667 6.66675V15.8334C16.6667 17.2142 15.5475 18.3334 14.1667 18.3334H5.83337C4.45254 18.3334 3.33337 17.2142 3.33337 15.8334Z" fill="#E6E6E6"/>
<path d="M11.6666 5.00008V1.66675L16.6666 6.66675H13.3333C12.4125 6.66675 11.6666 5.92091 11.6666 5.00008Z" fill="#6C6C6C"/>
<path d="M12.5 10.8334H7.49996C7.03913 10.8334 6.66663 10.4601 6.66663 10.0001C6.66663 9.54008 7.03913 9.16675 7.49996 9.16675H12.5C12.9608 9.16675 13.3333 9.54008 13.3333 10.0001C13.3333 10.4601 12.9608 10.8334 12.5 10.8334Z" fill="#6C6C6C"/>
<path d="M10.8333 14.1667H7.49996C7.03913 14.1667 6.66663 13.7933 6.66663 13.3333C6.66663 12.8733 7.03913 12.5 7.49996 12.5H10.8333C11.2941 12.5 11.6666 12.8733 11.6666 13.3333C11.6666 13.7933 11.2941 14.1667 10.8333 14.1667Z" fill="#6C6C6C"/>
</svg>
