<svg width="16" height="16" viewBox="0 0 16 16" fill="none" xmlns="http://www.w3.org/2000/svg">
<g opacity="0.7">
<path d="M8.00004 14.6666C11.6819 14.6666 14.6667 11.6819 14.6667 7.99998C14.6667 4.31808 11.6819 1.33331 8.00004 1.33331C4.31814 1.33331 1.33337 4.31808 1.33337 7.99998C1.33337 11.6819 4.31814 14.6666 8.00004 14.6666Z" fill="#DBDBDB"/>
<path d="M7.33337 11.3333V7.99998C7.33337 7.63198 7.63204 7.33331 8.00004 7.33331C8.36804 7.33331 8.66671 7.63198 8.66671 7.99998V11.3333C8.66671 11.7013 8.36804 12 8.00004 12C7.63204 12 7.33337 11.7013 7.33337 11.3333Z" fill="#474B53"/>
<path d="M8 6C8.55228 6 9 5.55228 9 5C9 4.44772 8.55228 4 8 4C7.44772 4 7 4.44772 7 5C7 5.55228 7.44772 6 8 6Z" fill="#474B53"/>
</g>
</svg>
