<svg width="87" height="25" viewBox="0 0 87 25" fill="none" xmlns="http://www.w3.org/2000/svg">
<path d="M0.881226 18.2838V6.90541H3.57265V7.95946C4.39656 7.05856 5.44017 6.60811 6.7035 6.60811C8.22315 6.60811 9.35831 7.12162 10.109 8.14865C10.585 8.81532 10.823 9.86937 10.823 11.3108V18.2838H8.1316V11.9595C8.1316 11.2748 8.07668 10.7162 7.96682 10.2838C7.85697 9.85135 7.68303 9.55406 7.44501 9.39189C7.207 9.21171 6.98729 9.1036 6.78589 9.06757C6.6028 9.01351 6.34647 8.98649 6.01691 8.98649C5.63242 8.98649 5.32117 9.02252 5.08315 9.09459C4.86344 9.14865 4.61627 9.29279 4.34163 9.52703C4.08531 9.74324 3.89306 10.1306 3.7649 10.6892C3.63674 11.2297 3.57265 11.9414 3.57265 12.8243V18.2838H0.881226Z" fill="black"/>
<path d="M23.7131 14.4459L25.9651 15.6892C25.4524 16.5901 24.8025 17.2838 24.0152 17.7703C23.118 18.3468 21.9829 18.6351 20.6097 18.6351C18.9985 18.6351 17.6986 18.1486 16.7099 17.1757C15.5747 16.0586 15.0071 14.6081 15.0071 12.8243C15.0071 10.9505 15.6205 9.39189 16.8472 8.14865C17.8908 7.12162 19.1816 6.60811 20.7196 6.60811C22.2209 6.60811 23.4568 7.10361 24.4271 8.0946C25.5074 9.19369 26.0475 10.7973 26.0475 12.9054V13.2297H17.7535C17.8267 14.1847 18.1563 14.9505 18.7422 15.527C19.2365 16.0135 19.9231 16.2568 20.802 16.2568C21.516 16.2568 22.1294 16.0676 22.642 15.6892C23.0631 15.3649 23.4201 14.9505 23.7131 14.4459ZM17.9457 11.0676H23.3011C23.1913 10.4369 22.9166 9.92342 22.4772 9.52703C22.0012 9.0946 21.397 8.87838 20.6646 8.87838C19.8957 8.87838 19.264 9.12162 18.7697 9.60811C18.3669 9.96847 18.0922 10.455 17.9457 11.0676Z" fill="black"/>
<path d="M35.0671 9.33784H33.0074V18.2838H30.3159V9.33784H29.1899V6.90541H30.3159V2.74324H33.0074V6.90541H35.0671V9.33784Z" fill="black"/>
<path d="M46.3598 14.4459L48.6118 15.6892C48.0991 16.5901 47.4492 17.2838 46.6619 17.7703C45.7647 18.3468 44.6296 18.6351 43.2564 18.6351C41.6452 18.6351 40.3453 18.1486 39.3566 17.1757C38.2214 16.0586 37.6538 14.6081 37.6538 12.8243C37.6538 10.9505 38.2672 9.39189 39.4939 8.14865C40.5375 7.12162 41.8283 6.60811 43.3663 6.60811C44.8676 6.60811 46.1035 7.10361 47.0738 8.0946C48.1541 9.19369 48.6942 10.7973 48.6942 12.9054V13.2297H40.4002C40.4734 14.1847 40.803 14.9505 41.3889 15.527C41.8832 16.0135 42.5698 16.2568 43.4487 16.2568C44.1627 16.2568 44.7761 16.0676 45.2887 15.6892C45.7098 15.3649 46.0668 14.9505 46.3598 14.4459ZM40.5924 11.0676H45.9478C45.838 10.4369 45.5633 9.92342 45.1239 9.52703C44.6479 9.0946 44.0437 8.87838 43.3113 8.87838C42.5424 8.87838 41.9107 9.12162 41.4164 9.60811C41.0136 9.96847 40.7389 10.455 40.5924 11.0676Z" fill="black"/>
<path d="M52.8528 18.2838V6.90541H55.5442V7.95946C56.3681 7.05856 57.4117 6.60811 58.675 6.60811C60.1947 6.60811 61.3299 7.12162 62.0805 8.14865C62.5566 8.81532 62.7946 9.86937 62.7946 11.3108V18.2838H60.1031V11.9595C60.1031 11.2748 60.0482 10.7162 59.9384 10.2838C59.8285 9.85135 59.6546 9.55406 59.4166 9.39189C59.1785 9.21171 58.9588 9.1036 58.7574 9.06757C58.5743 9.01351 58.318 8.98649 57.9885 8.98649C57.604 8.98649 57.2927 9.02252 57.0547 9.09459C56.835 9.14865 56.5878 9.29279 56.3132 9.52703C56.0569 9.74324 55.8646 10.1306 55.7365 10.6892C55.6083 11.2297 55.5442 11.9414 55.5442 12.8243V18.2838H52.8528Z" fill="black"/>
<path d="M76.0417 8.14865V6.90541H78.7331V17.3649C78.7331 18.8423 78.6049 20.0405 78.3486 20.9595C78.0923 21.8964 77.5888 22.6712 76.8381 23.2838C75.8311 24.0946 74.5495 24.5 72.9932 24.5C71.4186 24.5 70.1553 24.0315 69.2032 23.0946C68.2695 22.1757 67.7019 20.9955 67.5005 19.5541H70.1095C70.2377 20.2748 70.5215 20.8694 70.9609 21.3378C71.4552 21.8604 72.151 22.1216 73.0481 22.1216C73.9453 22.1216 74.6502 21.8694 75.1628 21.3649C75.7487 20.8063 76.0417 19.8514 76.0417 18.5V17.0135C75.1811 18.0946 74.0094 18.6351 72.5263 18.6351C70.9701 18.6351 69.6976 18.1216 68.7089 17.0946C67.5554 15.9054 66.9787 14.4009 66.9787 12.5811C66.9787 10.7613 67.5463 9.29279 68.6814 8.17568C69.725 7.13063 71.0341 6.60811 72.6087 6.60811C74.0185 6.60811 75.1628 7.12162 76.0417 8.14865ZM72.9383 8.98649C72.1144 8.98649 71.4369 9.23874 70.906 9.74324C70.1187 10.464 69.725 11.4279 69.725 12.6351C69.725 13.8784 70.1095 14.8333 70.8785 15.5C71.4644 16.0045 72.151 16.2568 72.9383 16.2568C73.8354 16.2568 74.5861 15.9505 75.1903 15.3378C75.8677 14.6171 76.2064 13.7252 76.2064 12.6622C76.2064 11.4369 75.8403 10.482 75.1079 9.7973C74.5586 9.25676 73.8354 8.98649 72.9383 8.98649Z" fill="black"/>
<path d="M83.5193 6.90541H86.2107V18.2838H83.5193V6.90541ZM83.6291 3.41892C83.2995 3.0946 83.1348 2.68919 83.1348 2.2027C83.1348 1.71622 83.2995 1.31081 83.6291 0.986487C83.9587 0.662162 84.3706 0.5 84.865 0.5C85.3593 0.5 85.7713 0.662162 86.1008 0.986487C86.4304 1.31081 86.5952 1.71622 86.5952 2.2027C86.5952 2.68919 86.4304 3.0946 86.1008 3.41892C85.7713 3.74324 85.3593 3.90541 84.865 3.90541C84.3706 3.90541 83.9587 3.74324 83.6291 3.41892Z" fill="black"/>
</svg>
