<svg width="20" height="20" viewBox="0 0 20 20" fill="none" xmlns="http://www.w3.org/2000/svg">
<path d="M10 2.5C5.83333 2.5 2.5 5.83333 2.5 10C2.5 14.1667 5.83333 17.5 10 17.5C14.1667 17.5 17.5 14.1667 17.5 10C17.5 5.83333 14.1667 2.5 10 2.5ZM10 13.3333C8.16667 13.3333 6.66667 11.8333 6.66667 10C6.66667 8.16667 8.16667 6.66667 10 6.66667C11.8333 6.66667 13.3333 8.16667 13.3333 10C13.3333 11.8333 11.8333 13.3333 10 13.3333Z" fill="#DBDBDB"/>
<path d="M9.58325 1.66666H10.4166C11.0833 1.66666 11.6666 2.24999 11.6666 2.91666V6.24999C11.6666 6.91666 11.0833 7.49999 10.4166 7.49999H9.58325C8.91659 7.49999 8.33325 6.91666 8.33325 6.24999V2.91666C8.33325 2.24999 8.91659 1.66666 9.58325 1.66666Z" fill="#6C6C6C"/>
<path d="M1.66675 10.4167V9.58334C1.66675 8.91668 2.25008 8.33334 2.91675 8.33334H6.25008C6.91675 8.33334 7.50008 8.91668 7.50008 9.58334V10.4167C7.50008 11.0833 6.91675 11.6667 6.25008 11.6667H2.91675C2.25008 11.6667 1.66675 11.0833 1.66675 10.4167Z" fill="#6C6C6C"/>
<path d="M10.4166 18.3333H9.58325C8.91659 18.3333 8.33325 17.75 8.33325 17.0833V13.75C8.33325 13.0833 8.91659 12.5 9.58325 12.5H10.4166C11.0833 12.5 11.6666 13.0833 11.6666 13.75V17.0833C11.6666 17.75 11.0833 18.3333 10.4166 18.3333Z" fill="#6C6C6C"/>
<path d="M18.3333 9.58334V10.4167C18.3333 11.0833 17.75 11.6667 17.0833 11.6667H13.75C13.0833 11.6667 12.5 11.0833 12.5 10.4167V9.58334C12.5 8.91668 13.0833 8.33334 13.75 8.33334H17.0833C17.75 8.33334 18.3333 8.91668 18.3333 9.58334Z" fill="#6C6C6C"/>
</svg>
