<svg width="20" height="20" viewBox="0 0 20 20" fill="none" xmlns="http://www.w3.org/2000/svg">
<path d="M7 17C7 18.1047 8.11917 19 9.5 19C10.8808 19 12 18.1047 12 17H7Z" fill="#6C6C6C"/>
<path d="M14.75 9.74071V8.67278C14.75 5.69144 12.5352 3.09201 9.66125 3.00256C6.68825 2.90922 4.25 5.3811 4.25 8.44411V9.74071C4.25 10.9191 3.88175 12.0648 3.2 13.0075L2.3375 14.1999C2.1185 14.5025 2 14.8711 2 15.2499C2 16.2167 2.75525 17 3.6875 17H15.3125C16.2448 17 17 16.2167 17 15.2499C17 14.8711 16.8815 14.5025 16.6625 14.1999L15.8 13.0075C15.1182 12.0648 14.75 10.9183 14.75 9.74071Z" fill="#DBDBDB"/>
</svg>
