<svg width="20" height="20" viewBox="0 0 20 20" fill="none" xmlns="http://www.w3.org/2000/svg">
<path d="M15 17.5H5C3.61917 17.5 2.5 16.3808 2.5 15V5.83334H17.5V15C17.5 16.3808 16.3808 17.5 15 17.5Z" fill="#DBDBDB"/>
<path d="M17.5 5.83333H2.5V5C2.5 3.61917 3.61917 2.5 5 2.5H15C16.3808 2.5 17.5 3.61917 17.5 5V5.83333Z" fill="#6C6C6C"/>
<path d="M5.8333 15C5.64164 15 5.4483 14.9342 5.29164 14.7992C4.94247 14.5 4.90164 13.9742 5.20164 13.625L7.23664 11.25L5.20164 8.87498C4.90247 8.52582 4.94247 7.99998 5.29164 7.70082C5.63997 7.40082 6.16664 7.44082 6.46664 7.79082L8.96664 10.7075C9.23414 11.0192 9.23414 11.48 8.96664 11.7917L6.46664 14.7083C6.30164 14.9017 6.06747 15 5.8333 15Z" fill="#6C6C6C"/>
<path d="M14.1667 15H10.8333C10.3733 15 10 14.6275 10 14.1667C10 13.7058 10.3733 13.3333 10.8333 13.3333H14.1667C14.6267 13.3333 15 13.7058 15 14.1667C15 14.6275 14.6267 15 14.1667 15Z" fill="#6C6C6C"/>
</svg>
