<svg width="20" height="20" viewBox="0 0 20 20" fill="none" xmlns="http://www.w3.org/2000/svg">
<g clip-path="url(#clip0_410_21003)">
<g clip-path="url(#clip1_410_21003)">
<path d="M4.58326 14.9999C4.26326 14.9999 3.94326 14.8782 3.6991 14.6341L0.365762 11.3007C-0.122572 10.8124 -0.122572 10.0216 0.365762 9.53324C0.854095 9.04491 1.64493 9.04491 2.13326 9.53324L4.58326 11.9824L12.0324 4.53324C12.5208 4.04491 13.3116 4.04491 13.7999 4.53324C14.2883 5.02158 14.2883 5.81241 13.7999 6.30074L5.4666 14.6341C5.22326 14.8782 4.90326 14.9999 4.58326 14.9999Z" fill="#8BABF8"/>
<path d="M10.4168 14.9999C10.0968 14.9999 9.77676 14.8782 9.53259 14.6341L6.19926 11.3007C5.71092 10.8124 5.71092 10.0216 6.19926 9.53324C6.68759 9.04491 7.47842 9.04491 7.96676 9.53324L10.4159 11.9824L17.8651 4.53324C18.3534 4.04491 19.1443 4.04491 19.6326 4.53324C20.1209 5.02158 20.1209 5.81241 19.6326 6.30074L11.2993 14.6341C11.0568 14.8782 10.7368 14.9999 10.4168 14.9999Z" fill="#4671F6"/>
</g>
</g>
<defs>
<clipPath id="clip0_410_21003">
<rect width="20" height="20" fill="white"/>
</clipPath>
<clipPath id="clip1_410_21003">
<rect width="20" height="20" fill="white"/>
</clipPath>
</defs>
</svg>
