<svg width="136" height="141" viewBox="0 0 136 141" fill="none" xmlns="http://www.w3.org/2000/svg">
<path d="M33.7681 109.171L44.7838 114.805L94 22.4999L80.452 17.5734C78.5303 16.8746 76.4405 16.7817 74.4644 17.3073L34.9579 27.8143C32.3295 28.5133 30.5 30.893 30.5 33.6127L30.5 103.829C30.5 106.082 31.7622 108.145 33.7681 109.171Z" fill="url(#paint0_linear_198_5709)"/>
<path d="M42.457 39.1871C42.457 36.4327 44.3324 34.0321 47.0049 33.3655L91.1327 22.3587C94.9188 21.4143 98.5848 24.2783 98.5848 28.1804L98.5847 96.5554C98.5847 99.1957 96.8588 101.526 94.333 102.295L50.2053 115.736C46.3504 116.911 42.457 114.027 42.457 109.997L42.457 39.1871Z" fill="#4671F6"/>
<circle cx="70.0003" cy="60.9993" r="20" fill="url(#paint1_linear_198_5709)"/>
<circle cx="70.0003" cy="60.9993" r="4" fill="#4671F6"/>
<path d="M50 82.8696C50 80.4561 51.2209 78.2064 53.2444 76.8911L65.2037 69.1176C66.7905 68.0862 68.7895 69.6315 68.191 71.427L63.5895 85.2316C62.6403 88.0792 59.9753 90 56.9737 90C53.1222 90 50 86.8778 50 83.0263L50 82.8696Z" fill="white"/>
<defs>
<linearGradient id="paint0_linear_198_5709" x1="69.0001" y1="2.99988" x2="22.0001" y2="62.4999" gradientUnits="userSpaceOnUse">
<stop stop-color="#5780FF"/>
<stop offset="0.536458" stop-color="#698EFF"/>
<stop offset="0.635417" stop-color="#A4BCFD"/>
<stop offset="1" stop-color="#A4BCFD"/>
</linearGradient>
<linearGradient id="paint1_linear_198_5709" x1="33.5001" y1="94.9999" x2="90.0001" y2="49.9999" gradientUnits="userSpaceOnUse">
<stop stop-color="#D9D9D9"/>
<stop offset="1" stop-color="#D9D9D9" stop-opacity="0"/>
</linearGradient>
</defs>
</svg>
