<svg width="20" height="20" viewBox="0 0 20 20" fill="none" xmlns="http://www.w3.org/2000/svg">
<g clip-path="url(#clip0_68_1174)">
<path d="M16.9028 7.43357H3.09722C2.00757 7.43357 1.125 6.551 1.125 5.46135V3.48913C1.125 2.39948 2.00757 1.51691 3.09722 1.51691H16.9028C17.9924 1.51691 18.875 2.39948 18.875 3.48913V5.46135C18.875 6.551 17.9924 7.43357 16.9028 7.43357Z" fill="url(#paint0_linear_68_1174)"/>
<path d="M16.9028 13.3503H3.09722C2.00757 13.3503 1.125 12.4677 1.125 11.378V9.40582C1.125 8.31616 2.00757 7.43359 3.09722 7.43359H16.9028C17.9924 7.43359 18.875 8.31616 18.875 9.40582V11.378C18.875 12.4677 17.9924 13.3503 16.9028 13.3503Z" fill="url(#paint1_linear_68_1174)"/>
<path d="M16.9028 19.2669H3.09722C2.00757 19.2669 1.125 18.3843 1.125 17.2947V15.3224C1.125 14.2328 2.00757 13.3502 3.09722 13.3502H16.9028C17.9924 13.3502 18.875 14.2328 18.875 15.3224V17.2947C18.875 18.3843 17.9924 19.2669 16.9028 19.2669Z" fill="url(#paint2_linear_68_1174)"/>
<path d="M10.9861 5.46136H5.06942C4.5241 5.46136 4.08331 5.01958 4.08331 4.47525C4.08331 3.93091 4.5241 3.48914 5.06942 3.48914H10.9861C11.5314 3.48914 11.9722 3.93091 11.9722 4.47525C11.9722 5.01958 11.5314 5.46136 10.9861 5.46136Z" fill="#E0E7FC"/>
<path d="M14.9306 5.46136C15.4752 5.46136 15.9167 5.01986 15.9167 4.47525C15.9167 3.93063 15.4752 3.48914 14.9306 3.48914C14.386 3.48914 13.9445 3.93063 13.9445 4.47525C13.9445 5.01986 14.386 5.46136 14.9306 5.46136Z" fill="#E0E7FC"/>
<path d="M10.9861 11.378H5.06942C4.5241 11.378 4.08331 10.9363 4.08331 10.3919C4.08331 9.8476 4.5241 9.40582 5.06942 9.40582H10.9861C11.5314 9.40582 11.9722 9.8476 11.9722 10.3919C11.9722 10.9363 11.5314 11.378 10.9861 11.378Z" fill="#E0E7FC"/>
<path d="M14.9306 11.378C15.4752 11.378 15.9167 10.9365 15.9167 10.3919C15.9167 9.84732 15.4752 9.40582 14.9306 9.40582C14.386 9.40582 13.9445 9.84732 13.9445 10.3919C13.9445 10.9365 14.386 11.378 14.9306 11.378Z" fill="#E0E7FC"/>
<path d="M10.9861 17.2947H5.06942C4.5241 17.2947 4.08331 16.8529 4.08331 16.3086C4.08331 15.7642 4.5241 15.3224 5.06942 15.3224H10.9861C11.5314 15.3224 11.9722 15.7642 11.9722 16.3086C11.9722 16.8529 11.5314 17.2947 10.9861 17.2947Z" fill="#E0E7FC"/>
<path d="M14.9306 17.2947C15.4752 17.2947 15.9167 16.8532 15.9167 16.3086C15.9167 15.7639 15.4752 15.3224 14.9306 15.3224C14.386 15.3224 13.9445 15.7639 13.9445 16.3086C13.9445 16.8532 14.386 17.2947 14.9306 17.2947Z" fill="#E0E7FC"/>
</g>
<defs>
<linearGradient id="paint0_linear_68_1174" x1="10" y1="1.51691" x2="10" y2="7.43357" gradientUnits="userSpaceOnUse">
<stop stop-color="#BDCEEE"/>
<stop offset="1" stop-color="#4671F6"/>
</linearGradient>
<linearGradient id="paint1_linear_68_1174" x1="10" y1="7.43359" x2="10" y2="13.3503" gradientUnits="userSpaceOnUse">
<stop stop-color="#BDCEEE"/>
<stop offset="1" stop-color="#4671F6"/>
</linearGradient>
<linearGradient id="paint2_linear_68_1174" x1="10" y1="13.3502" x2="10" y2="19.2669" gradientUnits="userSpaceOnUse">
<stop stop-color="#BDCEEE"/>
<stop offset="1" stop-color="#4671F6"/>
</linearGradient>
<clipPath id="clip0_68_1174">
<rect width="20" height="20" fill="white"/>
</clipPath>
</defs>
</svg>
