<svg width="20" height="20" viewBox="0 0 20 20" fill="none" xmlns="http://www.w3.org/2000/svg">
<g clip-path="url(#clip0_68_1291)">
<g clip-path="url(#clip1_68_1291)">
<path d="M18.2504 4.29973C18.136 3.93379 17.8616 3.63647 17.5185 3.4535L10.5429 0.114354C10.3599 0.0228709 10.1541 0 9.97112 0C9.78815 0 9.58231 0 9.39935 0.0457418L2.42373 3.40776C2.08066 3.56786 1.82908 3.86518 1.7376 4.25399L0.0222844 11.7785C-0.0463282 12.1673 0.0451553 12.5561 0.273864 12.8763L5.09962 18.8456C5.37407 19.1201 5.76288 19.303 6.15168 19.3259H13.8363C14.248 19.3716 14.6368 19.1887 14.8884 18.8456L19.7141 12.8763C19.9428 12.5561 20.0343 12.1673 19.9886 11.7785L18.2504 4.29973Z" fill="url(#paint0_linear_68_1291)"/>
<path d="M17.1754 11.4812C17.1525 11.4812 17.1297 11.4812 17.1297 11.4583C17.1297 11.4354 17.0839 11.4354 17.0382 11.4354C16.9467 11.4126 16.8552 11.4126 16.7637 11.4126C16.718 11.4126 16.6723 11.4126 16.6265 11.3897H16.6036C16.3521 11.3668 16.0776 11.3211 15.826 11.2525C15.7574 11.2296 15.6888 11.161 15.6659 11.0924C15.6888 11.0924 15.6659 11.0924 15.6659 11.0924L15.483 11.0466C15.5744 10.3834 15.5287 9.69726 15.3915 9.03401C15.2314 8.37075 14.9569 7.73037 14.591 7.15859L14.7282 7.02137V6.9985C14.7282 6.92989 14.7511 6.8384 14.7968 6.79266C15.0027 6.60969 15.2085 6.47247 15.4372 6.33524C15.483 6.31237 15.5287 6.2895 15.5745 6.26663C15.6659 6.22089 15.7345 6.17515 15.826 6.1294C15.8489 6.10653 15.8718 6.10653 15.8946 6.08366C15.9175 6.06079 15.8946 6.06079 15.8946 6.03792C16.1005 5.87782 16.1462 5.60337 15.9861 5.39754C15.9175 5.30605 15.7803 5.23744 15.6659 5.23744C15.5516 5.23744 15.4372 5.28318 15.3457 5.35179L15.3229 5.37467C15.3 5.39754 15.2771 5.42041 15.2543 5.42041C15.1856 5.48902 15.117 5.55763 15.0713 5.62625C15.0484 5.67199 15.0027 5.69486 14.9798 5.71773C14.8197 5.9007 14.6139 6.08366 14.408 6.22089C14.3623 6.24376 14.3166 6.26663 14.2708 6.26663C14.2479 6.26663 14.2022 6.26663 14.1793 6.24376H14.1565L13.9735 6.35811C13.7905 6.17515 13.5847 5.99218 13.4017 5.80921C12.5555 5.14596 11.5034 4.73428 10.4285 4.61993L10.4056 4.43696V4.45983C10.337 4.41409 10.3141 4.34548 10.2913 4.27686C10.2913 4.02528 10.2913 3.7737 10.337 3.49925V3.47638C10.337 3.43064 10.3599 3.3849 10.3599 3.33916C10.3828 3.24767 10.3828 3.15619 10.4056 3.06471V2.92748C10.4285 2.69877 10.2455 2.47006 10.0168 2.44719C9.8796 2.42432 9.74238 2.49293 9.62802 2.60729C9.53654 2.69877 9.4908 2.81313 9.4908 2.92748V3.04184C9.4908 3.13332 9.51367 3.2248 9.53654 3.31629C9.55941 3.36203 9.55941 3.40777 9.55941 3.45351V3.47638C9.60515 3.72796 9.60515 3.97954 9.60515 4.25399C9.58228 4.3226 9.55941 4.39122 9.4908 4.43696V4.4827L9.46793 4.66567C9.21635 4.68854 8.96477 4.73428 8.69032 4.78002C7.61538 5.00873 6.63194 5.5805 5.8772 6.38098L5.73997 6.2895H5.7171C5.69423 6.2895 5.67136 6.31237 5.62562 6.31237C5.57988 6.31237 5.53413 6.2895 5.48839 6.26663C5.28256 6.10653 5.07672 5.92357 4.91662 5.7406C4.89375 5.69486 4.84801 5.67199 4.82514 5.64912C4.75652 5.5805 4.71078 5.51189 4.64217 5.44328C4.6193 5.42041 4.59643 5.42041 4.57356 5.39754C4.55069 5.37467 4.55069 5.37467 4.55069 5.37467C4.4592 5.30605 4.34485 5.26031 4.23049 5.26031C4.09327 5.26031 3.97891 5.30605 3.9103 5.42041C3.77308 5.62625 3.81882 5.9007 4.00179 6.06079C4.02466 6.06079 4.02466 6.08366 4.02466 6.08366C4.02466 6.08366 4.0704 6.1294 4.09327 6.1294C4.16188 6.17515 4.25337 6.22089 4.34485 6.26663C4.39059 6.2895 4.43633 6.31237 4.48207 6.33524C4.71078 6.47247 4.93949 6.60969 5.12246 6.79266C5.1682 6.8384 5.21394 6.92989 5.19107 6.9985V6.97563L5.3283 7.11285C5.30543 7.15859 5.28256 7.18147 5.25968 7.22721C4.55069 8.34788 4.25337 9.67439 4.4592 10.978L4.27624 11.0238C4.27624 11.0466 4.25337 11.0466 4.25337 11.0466C4.23049 11.1153 4.16188 11.161 4.09327 11.2067C3.84169 11.2754 3.59011 11.3211 3.31566 11.344C3.26992 11.344 3.22418 11.344 3.17843 11.3668C3.08695 11.3668 2.99547 11.3897 2.90398 11.3897C2.88111 11.3897 2.85824 11.4126 2.8125 11.4126C2.78963 11.4126 2.78963 11.4126 2.76676 11.4354C2.51518 11.4812 2.35508 11.7099 2.40082 11.9615C2.44657 12.1673 2.6524 12.3045 2.85824 12.2817C2.90398 12.2817 2.92685 12.2817 2.9726 12.2588C2.99547 12.2588 2.99547 12.2588 2.99547 12.2359C2.99547 12.2131 3.06408 12.2359 3.08695 12.2359C3.17843 12.2131 3.26992 12.1673 3.33853 12.1444C3.38427 12.1216 3.43001 12.0987 3.47576 12.0987H3.49863C3.75021 12.0072 3.97891 11.9386 4.25337 11.8929H4.27624C4.34485 11.8929 4.41346 11.9157 4.4592 11.9615C4.48207 11.9615 4.48207 11.9844 4.48207 11.9844L4.68791 11.9615C5.03098 13.0135 5.67136 13.9512 6.56332 14.6374C6.76916 14.7975 6.95213 14.9347 7.18084 15.049L7.06648 15.2091C7.06648 15.232 7.08935 15.232 7.08935 15.232C7.1351 15.3006 7.1351 15.3921 7.11223 15.4607C7.02074 15.6894 6.88352 15.9181 6.74629 16.124V16.1469C6.72342 16.1926 6.70055 16.2155 6.65481 16.2612C6.60907 16.3069 6.56332 16.3984 6.49471 16.4899C6.47184 16.5128 6.47184 16.5357 6.44897 16.5585C6.44897 16.5585 6.44897 16.5814 6.4261 16.5814C6.31174 16.8101 6.40323 17.0846 6.60907 17.1989C6.65481 17.2218 6.72342 17.2447 6.76916 17.2447C6.95213 17.2447 7.11223 17.1303 7.20371 16.9702C7.20371 16.9702 7.20371 16.9473 7.22658 16.9473C7.22658 16.9245 7.24945 16.9016 7.27232 16.8787C7.29519 16.7872 7.34093 16.7186 7.36381 16.6271L7.40955 16.4899C7.47816 16.2383 7.59251 16.0096 7.70687 15.7809C7.75261 15.7123 7.82122 15.6666 7.88984 15.6437C7.91271 15.6437 7.91271 15.6437 7.91271 15.6208L8.00419 15.4379C8.64457 15.6894 9.30783 15.8038 9.99396 15.8038C10.4056 15.8038 10.8173 15.758 11.229 15.6437C11.4806 15.598 11.7321 15.5065 11.9609 15.4379L12.0523 15.5979C12.0752 15.5979 12.0752 15.598 12.0752 15.6208C12.1438 15.6437 12.2124 15.6894 12.2582 15.758C12.3725 15.9868 12.4869 16.2155 12.5555 16.467V16.4899L12.6012 16.6271C12.6241 16.7186 12.647 16.8101 12.6927 16.8787C12.7156 16.9016 12.7156 16.9245 12.7385 16.9473C12.7385 16.9473 12.7385 16.9702 12.7613 16.9702C12.8528 17.1303 13.0129 17.2447 13.1959 17.2447C13.2645 17.2447 13.3102 17.2218 13.3788 17.1989C13.4703 17.1532 13.5618 17.0617 13.5847 16.9473C13.6076 16.833 13.6076 16.7186 13.5618 16.6043C13.5618 16.5814 13.5389 16.5814 13.5389 16.5814C13.5389 16.5585 13.5161 16.5357 13.4932 16.5128C13.4475 16.4213 13.4017 16.3527 13.3331 16.2841C13.3102 16.2383 13.2874 16.2155 13.2416 16.1697V16.124C13.0815 15.9181 12.9672 15.6894 12.8757 15.4607C12.8528 15.3921 12.8528 15.3006 12.8986 15.232C12.8986 15.2091 12.9214 15.2091 12.9214 15.2091L12.8528 15.0262C14.0192 14.3172 14.9112 13.2194 15.3229 11.9157L15.5058 11.9386C15.5287 11.9386 15.5287 11.9157 15.5287 11.9157C15.5745 11.87 15.6431 11.8471 15.7117 11.8471H15.7345C15.9861 11.8929 16.2377 11.9615 16.4664 12.053H16.4893C16.535 12.0758 16.5808 12.0987 16.6265 12.0987C16.718 12.1444 16.7866 12.1902 16.8781 12.2131C16.901 12.2131 16.9238 12.2359 16.9696 12.2359C16.9924 12.2359 16.9924 12.2359 17.0153 12.2588C17.0611 12.2817 17.0839 12.2817 17.1297 12.2817C17.3355 12.2817 17.5185 12.1444 17.5871 11.9615C17.5642 11.7099 17.3813 11.5269 17.1754 11.4812ZM10.5657 10.7722L9.94821 11.0695L9.3307 10.7722L9.1706 10.1089L9.60515 9.56004H10.2913L10.7258 10.1089L10.5657 10.7722ZM14.2937 9.28559C14.408 9.76587 14.4309 10.2462 14.3852 10.7265L12.2124 10.1089C12.0066 10.0632 11.8922 9.85736 11.938 9.65152C11.9609 9.58291 11.9837 9.53717 12.0295 9.49142L13.7448 7.9362C13.9964 8.34788 14.1793 8.8053 14.2937 9.28559ZM13.0587 7.08998L11.1832 8.41649C11.0231 8.50798 10.7944 8.48511 10.6801 8.32501C10.6343 8.27927 10.6115 8.23353 10.6115 8.16491L10.4742 5.85495C11.4806 5.96931 12.3725 6.40386 13.0587 7.08998ZM8.91902 5.92357L9.37644 5.83208L9.26209 8.11917C9.26209 8.32501 9.07912 8.48511 8.87328 8.48511C8.80467 8.48511 8.75893 8.46223 8.69032 8.43936L6.79203 7.08998C7.38668 6.51821 8.11854 6.10653 8.91902 5.92357ZM6.12878 7.9362L7.82122 9.44568C7.98132 9.58291 8.00419 9.81162 7.86696 9.97171C7.82122 10.0403 7.77548 10.0632 7.684 10.0861L5.46552 10.7265C5.39691 9.76588 5.62562 8.78243 6.12878 7.9362ZM5.73997 11.8014L8.00419 11.4126C8.18716 11.4126 8.37012 11.5269 8.39299 11.7099C8.41587 11.7785 8.41586 11.87 8.37012 11.9386L7.50103 14.0427C6.70055 13.5167 6.06016 12.7162 5.73997 11.8014ZM10.9317 14.6374C10.6115 14.706 10.2913 14.7517 9.94821 14.7517C9.46793 14.7517 8.96477 14.6602 8.50735 14.523L9.62802 12.4875C9.74238 12.3503 9.92534 12.3045 10.0854 12.396C10.1541 12.4418 10.1998 12.4875 10.2684 12.5561L11.3662 14.5459C11.229 14.5688 11.0918 14.5916 10.9317 14.6374ZM13.7219 12.6476C13.3788 13.1965 12.8986 13.6768 12.3497 14.0199L11.4577 11.87C11.412 11.687 11.5034 11.5041 11.6635 11.4354C11.7321 11.4126 11.8008 11.3897 11.8694 11.3897L14.1565 11.7785C14.0421 12.0987 13.9049 12.396 13.7219 12.6476Z" fill="white"/>
</g>
</g>
<defs>
<linearGradient id="paint0_linear_68_1291" x1="0" y1="0" x2="20" y2="18.8889" gradientUnits="userSpaceOnUse">
<stop stop-color="#BDCEEE"/>
<stop offset="1" stop-color="#4671F6"/>
</linearGradient>
<clipPath id="clip0_68_1291">
<rect width="20" height="20" fill="white"/>
</clipPath>
<clipPath id="clip1_68_1291">
<rect width="20" height="20" fill="white"/>
</clipPath>
</defs>
</svg>
