<svg width="20" height="20" viewBox="0 0 20 20" fill="none" xmlns="http://www.w3.org/2000/svg">
<g clip-path="url(#clip0_68_1270)">
<g clip-path="url(#clip1_68_1270)">
<path d="M12.3354 0.666687C8.46886 0.666687 5.33417 3.80138 5.33417 7.66794C5.33417 11.5345 8.46886 14.6692 12.3354 14.6692C16.202 14.6692 19.3367 11.5345 19.3367 7.66794C19.3367 3.80138 16.202 0.666687 12.3354 0.666687ZM14.6692 7.20119C13.6377 7.20119 12.8022 6.36571 12.8022 5.33419C12.8022 4.30267 13.6377 3.46719 14.6692 3.46719C15.7007 3.46719 16.5362 4.30267 16.5362 5.33419C16.5362 6.36571 15.7007 7.20119 14.6692 7.20119Z" fill="url(#paint0_linear_68_1270)"/>
<path d="M5.88212 10.3872L0.940172 15.3292C0.764674 15.5047 0.666656 15.7418 0.666656 15.9891V18.4032C0.666656 18.9185 1.08486 19.3367 1.60016 19.3367H4.01419C4.26157 19.3367 4.49961 19.2387 4.67417 19.0632L5.88119 17.8561C6.12857 17.6088 6.26766 17.2727 6.26766 16.9226C6.26766 16.1936 6.85856 15.6027 7.58763 15.6027C7.93769 15.6027 8.27375 15.4636 8.52113 15.2162L9.61612 14.1212C7.93582 13.4127 6.59065 12.0666 5.88212 10.3872Z" fill="#BDCEEE"/>
</g>
</g>
<defs>
<linearGradient id="paint0_linear_68_1270" x1="18.9633" y1="14.4825" x2="6.08096" y2="1.04008" gradientUnits="userSpaceOnUse">
<stop stop-color="#4671F6"/>
<stop offset="1" stop-color="#BDCEEE"/>
</linearGradient>
<clipPath id="clip0_68_1270">
<rect width="20" height="20" fill="white"/>
</clipPath>
<clipPath id="clip1_68_1270">
<rect width="20" height="20" fill="white"/>
</clipPath>
</defs>
</svg>
