<svg width="20" height="20" viewBox="0 0 20 20" fill="none" xmlns="http://www.w3.org/2000/svg">
<g clip-path="url(#clip0_68_1217)">
<path d="M15.1875 19H5.8125C4.25906 19 3 17.7913 3 16.3V3.7C3 2.2087 4.25906 1 5.8125 1H15.1875C16.7409 1 18 2.2087 18 3.7V16.3C18 17.7913 16.7409 19 15.1875 19Z" fill="url(#paint0_linear_68_1217)"/>
<path d="M15.1875 19H5.8125C4.25906 19 3 17.8808 3 16.5C3 15.1192 4.25906 14 5.8125 14H15.1875C16.7409 14 18 15.1192 18 16.5C18 17.8808 16.7409 19 15.1875 19ZM15.1875 15.6667C14.6719 15.6667 14.25 16.0417 14.25 16.5C14.25 16.9583 14.6719 17.3333 15.1875 17.3333C15.7031 17.3333 16.125 16.9583 16.125 16.5C16.125 16.0417 15.7031 15.6667 15.1875 15.6667Z" fill="#BDCEEE"/>
<path d="M15 7.5C15 9.984 12.984 12 10.5 12C9.582 12 8.727 11.721 8.016 11.262L10.239 9.039C10.59 8.688 10.59 8.112 10.239 7.761C9.888 7.41 9.312 7.41 8.961 7.761L6.738 9.984C6.279 9.273 6 8.418 6 7.5C6 5.016 8.016 3 10.5 3C12.984 3 15 5.016 15 7.5Z" fill="#BDCEEE"/>
</g>
<defs>
<linearGradient id="paint0_linear_68_1217" x1="3" y1="1" x2="18" y2="19" gradientUnits="userSpaceOnUse">
<stop stop-color="#BDCEEE"/>
<stop offset="1" stop-color="#4671F6"/>
</linearGradient>
<clipPath id="clip0_68_1217">
<rect width="20" height="20" fill="white"/>
</clipPath>
</defs>
</svg>
