<svg width="20" height="20" viewBox="0 0 20 20" fill="none" xmlns="http://www.w3.org/2000/svg">
<path d="M18.1116 15.0208L11.4316 3.44996C11.1366 2.93829 10.5899 2.62329 9.99991 2.62329C9.40991 2.62329 8.86324 2.93829 8.56824 3.44996L1.88824 15.0208C1.59324 15.5325 1.59324 16.1616 1.88824 16.6741C2.18324 17.185 2.72908 17.5 3.31991 17.5H16.6807C17.2707 17.5 17.8174 17.185 18.1124 16.6733C18.4074 16.1616 18.4074 15.5325 18.1116 15.0208Z" fill="#E85048"/>
<path d="M10.9826 14.7883C10.9826 15.0825 10.8117 15.8333 9.99508 15.8333C9.17841 15.8333 9.01758 15.0817 9.01758 14.7883C9.01758 14.5008 9.19925 13.7308 9.99508 13.7308C10.7909 13.7308 10.9826 14.5008 10.9826 14.7883ZM9.09924 11.5992V7.97334C9.09924 7.47584 9.50258 7.07251 10.0001 7.07251C10.4976 7.07251 10.9009 7.47584 10.9009 7.97334V11.6C10.9009 12.0967 10.4976 12.5 10.0001 12.5C9.50258 12.5 9.09924 12.0967 9.09924 11.5992Z" fill="white"/>
</svg>
