<svg width="20" height="20" viewBox="0 0 20 20" fill="none" xmlns="http://www.w3.org/2000/svg">
<path d="M10.0001 18.3333C14.6025 18.3333 18.3334 14.6023 18.3334 9.99996C18.3334 5.39759 14.6025 1.66663 10.0001 1.66663C5.39771 1.66663 1.66675 5.39759 1.66675 9.99996C1.66675 14.6023 5.39771 18.3333 10.0001 18.3333Z" fill="#4671F6"/>
<path d="M9.16675 14.1666V9.99996C9.16675 9.53996 9.54008 9.16663 10.0001 9.16663C10.4601 9.16663 10.8334 9.53996 10.8334 9.99996V14.1666C10.8334 14.6266 10.4601 15 10.0001 15C9.54008 15 9.16675 14.6266 9.16675 14.1666Z" fill="white"/>
<path d="M10 7.5C10.6904 7.5 11.25 6.94036 11.25 6.25C11.25 5.55964 10.6904 5 10 5C9.30964 5 8.75 5.55964 8.75 6.25C8.75 6.94036 9.30964 7.5 10 7.5Z" fill="white"/>
</svg>
