<svg width="18" height="18" viewBox="0 0 18 18" fill="none" xmlns="http://www.w3.org/2000/svg">
<path d="M16.3005 13.5187L10.2885 3.10499C10.023 2.64449 9.53099 2.36099 8.99999 2.36099C8.46899 2.36099 7.97699 2.64449 7.71149 3.10499L1.69949 13.5187C1.43399 13.9792 1.43399 14.5455 1.69949 15.0067C1.96499 15.4665 2.45624 15.75 2.98799 15.75H15.0127C15.5437 15.75 16.0357 15.4665 16.3012 15.006C16.5667 14.5455 16.5667 13.9792 16.3005 13.5187Z" fill="#FFD12F"/>
<path d="M9.88422 13.3095C9.88422 13.5743 9.73047 14.25 8.99547 14.25C8.26047 14.25 8.11572 13.5735 8.11572 13.3095C8.11572 13.0508 8.27922 12.3578 8.99547 12.3578C9.71172 12.3578 9.88422 13.0508 9.88422 13.3095ZM8.18922 10.4393V7.17601C8.18922 6.72826 8.55222 6.36526 8.99997 6.36526C9.44772 6.36526 9.81072 6.72826 9.81072 7.17601V10.44C9.81072 10.887 9.44772 11.25 8.99997 11.25C8.55222 11.25 8.18922 10.887 8.18922 10.4393Z" fill="white"/>
</svg>
