<svg width="100" height="100" viewBox="0 0 100 100" fill="none" xmlns="http://www.w3.org/2000/svg">
<rect width="100" height="100" rx="50" fill="url(#paint0_linear_284_20575)"/>
<path d="M57.0833 70.8333H42.9167C39.7917 70.8333 37.0833 68.5417 36.6667 65.4167L33.5417 39.1667C33.3333 38.3333 34.1667 37.5 35 37.5H65.2083C66.0417 37.5 66.6667 38.3333 66.6667 39.1667L63.3333 65.4167C62.7083 68.5417 60.2083 70.8333 57.0833 70.8333Z" fill="#FFD2CF"/>
<path d="M58.3334 33.3333H41.6667V31.25C41.6667 30 42.5 29.1667 43.75 29.1667H56.25C57.5 29.1667 58.3334 30 58.3334 31.25V33.3333Z" fill="#E85048"/>
<path d="M64.5833 31.25C63.3333 31.25 36.6667 31.25 35.4167 31.25C33.125 31.25 31.25 33.125 31.25 35.4167C31.25 37.7083 33.125 39.5833 35.4167 39.5833C36.6667 39.5833 63.3333 39.5833 64.5833 39.5833C66.875 39.5833 68.75 37.7083 68.75 35.4167C68.75 33.125 66.875 31.25 64.5833 31.25Z" fill="#E85048"/>
<defs>
<linearGradient id="paint0_linear_284_20575" x1="50" y1="0" x2="50" y2="100" gradientUnits="userSpaceOnUse">
<stop stop-color="#FFEBEA"/>
<stop offset="1" stop-color="#FFF8F8"/>
</linearGradient>
</defs>
</svg>
