<svg width="100" height="100" viewBox="0 0 100 100" fill="none" xmlns="http://www.w3.org/2000/svg">
<rect width="100" height="100" rx="50" fill="url(#paint0_linear_284_20608)"/>
<path opacity="0.35" d="M62.5 68.75H37.5C34.0479 68.75 31.25 65.9521 31.25 62.5V37.5C31.25 34.0479 34.0479 31.25 37.5 31.25H59.9104C61.5687 31.25 63.1583 31.9083 64.3292 33.0812L66.9188 35.6708C68.0917 36.8417 68.75 38.4312 68.75 40.0896V62.5C68.75 65.9521 65.9521 68.75 62.5 68.75Z" fill="#3069E1"/>
<path d="M56.25 31.25C55.1 31.25 54.1667 32.1833 54.1667 33.3333V37.5C54.1667 38.65 53.2333 39.5833 52.0833 39.5833C50.9333 39.5833 50 38.65 50 37.5V33.3333C50 32.1833 49.0667 31.25 47.9167 31.25H43.75C42.6 31.25 41.6667 32.1833 41.6667 33.3333V41.6667C41.6667 42.8167 42.6 43.75 43.75 43.75H56.25C57.4 43.75 58.3333 42.8167 58.3333 41.6667V33.3333C58.3333 32.1833 57.4 31.25 56.25 31.25Z" fill="#4671F6"/>
<path d="M62.5 54.1667C62.5 51.8646 60.6354 50 58.3333 50H41.6667C39.3646 50 37.5 51.8646 37.5 54.1667V68.75H62.5V54.1667Z" fill="#4671F6"/>
<defs>
<linearGradient id="paint0_linear_284_20608" x1="50" y1="0" x2="50" y2="100" gradientUnits="userSpaceOnUse">
<stop stop-color="#BDCEEE"/>
<stop offset="1" stop-color="#F0F5FF"/>
</linearGradient>
</defs>
</svg>
