<svg width="100" height="100" viewBox="0 0 100 100" fill="none" xmlns="http://www.w3.org/2000/svg">
<rect width="100" height="100" rx="50" fill="url(#paint0_linear_482_31113)"/>
<g clip-path="url(#clip0_482_31113)">
<path d="M50.001 75.002C63.8087 75.002 75.002 63.8087 75.002 50.001C75.002 36.1933 63.8087 25 50.001 25C36.1933 25 25 36.1933 25 50.001C25 63.8087 36.1933 75.002 50.001 75.002Z" fill="#616161"/>
<path d="M50.001 65.9102C41.2134 65.9102 34.0918 58.7886 34.0918 50.001C34.0918 41.2134 41.2134 34.0918 50.001 34.0918C54.3928 34.0918 58.3696 35.8727 61.2505 38.7516L67.679 32.323C63.1543 27.7983 56.903 25 50.001 25C36.193 25 25 36.193 25 50.001C25 63.809 36.193 75.002 50.001 75.002C56.905 75.002 63.1543 72.2037 67.681 67.681L61.2525 61.2525C58.3696 64.1293 54.3928 65.9102 50.001 65.9102Z" fill="#9E9E9E"/>
<path d="M65.9102 50.001H57.9546C57.9546 45.6092 54.3928 42.0454 49.999 42.0454C45.6052 42.0454 42.0454 45.6072 42.0454 50.001C42.0454 52.1405 42.8915 54.0805 44.2675 55.5129L44.2615 55.519L54.1108 65.3683L54.1128 65.3703C60.906 63.5572 65.9102 57.3643 65.9102 50.001Z" fill="#424242"/>
<path d="M75 50.001H65.9082C65.9082 57.3643 60.9019 63.5571 54.1128 65.3702L61.1336 72.3911C69.3531 68.2954 75 59.808 75 50.001Z" fill="#616161"/>
<path d="M50.001 74.7159C36.2414 74.7159 25.0806 63.5995 25.002 49.858C25.002 49.9063 25 49.9527 25 50.001C25 63.809 36.193 75.002 50.001 75.002C63.809 75.002 75.002 63.809 75.002 50.001C75.002 49.9527 75 49.9063 75 49.858C74.9214 63.5995 63.7586 74.7159 50.001 74.7159Z" fill="#212121" fill-opacity="0.1"/>
<path d="M54.1148 65.3703L54.3364 65.5919C61.0128 63.7062 65.9102 57.5698 65.9102 50.285V50.001C65.9102 57.3643 60.904 63.5571 54.1148 65.3703Z" fill="white" fill-opacity="0.05"/>
<path d="M70.4562 47.7277H50.0001C48.745 47.7277 47.7277 48.745 47.7277 50.0001C47.7277 51.2552 48.745 52.2726 50.0001 52.2726H70.4542C71.7093 52.2726 72.7267 51.2552 72.7267 50.0001C72.7287 48.745 71.7113 47.7277 70.4562 47.7277Z" fill="#9E9E9E"/>
<path opacity="0.5" d="M70.4562 47.7277H50.0001C48.745 47.7277 47.7277 48.745 47.7277 50.0001C47.7277 51.2552 48.745 52.2726 50.0001 52.2726H70.4542C71.7093 52.2726 72.7267 51.2552 72.7267 50.0001C72.7287 48.745 71.7113 47.7277 70.4562 47.7277Z" fill="#BDBDBD"/>
<path d="M29.5449 51.7054C30.4862 51.7054 31.2493 50.9423 31.2493 50.001C31.2493 49.0598 30.4862 48.2967 29.5449 48.2967C28.6036 48.2967 27.8406 49.0598 27.8406 50.001C27.8406 50.9423 28.6036 51.7054 29.5449 51.7054Z" fill="#BDBDBD"/>
<path d="M50.001 31.2493C50.9423 31.2493 51.7054 30.4862 51.7054 29.5449C51.7054 28.6036 50.9423 27.8406 50.001 27.8406C49.0598 27.8406 48.2967 28.6036 48.2967 29.5449C48.2967 30.4862 49.0598 31.2493 50.001 31.2493Z" fill="#BDBDBD"/>
<path d="M50.001 72.1595C50.9423 72.1595 51.7054 71.3964 51.7054 70.4551C51.7054 69.5139 50.9423 68.7508 50.001 68.7508C49.0598 68.7508 48.2967 69.5139 48.2967 70.4551C48.2967 71.3964 49.0598 72.1595 50.001 72.1595Z" fill="#BDBDBD"/>
<path d="M35.5121 37.2406C36.4534 37.2406 37.2165 36.4776 37.2165 35.5363C37.2165 34.595 36.4534 33.832 35.5121 33.832C34.5709 33.832 33.8078 34.595 33.8078 35.5363C33.8078 36.4776 34.5709 37.2406 35.5121 37.2406Z" fill="#BDBDBD"/>
<path d="M35.5121 66.1943C36.4534 66.1943 37.2165 65.4312 37.2165 64.4899C37.2165 63.5486 36.4534 62.7856 35.5121 62.7856C34.5709 62.7856 33.8078 63.5486 33.8078 64.4899C33.8078 65.4312 34.5709 66.1943 35.5121 66.1943Z" fill="#BDBDBD"/>
<path d="M64.4899 66.1943C65.4312 66.1943 66.1943 65.4312 66.1943 64.4899C66.1943 63.5486 65.4312 62.7856 64.4899 62.7856C63.5486 62.7856 62.7856 63.5486 62.7856 64.4899C62.7856 65.4312 63.5486 66.1943 64.4899 66.1943Z" fill="#757575"/>
<path d="M50.001 48.0126H70.4551C71.6619 48.0126 72.649 48.9555 72.7195 50.1441C72.7215 50.0957 72.7276 50.0494 72.7276 50.001C72.7276 48.7459 71.7102 47.7286 70.4551 47.7286H50.001C48.7459 47.7286 47.7286 48.7459 47.7286 50.001C47.7286 50.0494 47.7306 50.0957 47.7366 50.1441C47.8071 48.9555 48.7923 48.0126 50.001 48.0126Z" fill="white" fill-opacity="0.2"/>
<path d="M72.7195 50.142C72.645 51.3286 71.6598 52.2735 70.4551 52.2735H50.001C48.7943 52.2735 47.8071 51.3306 47.7366 50.142C47.7306 50.1904 47.7286 50.2367 47.7286 50.283C47.7286 51.5381 48.7459 52.5555 50.001 52.5555H70.4551C71.7102 52.5555 72.7276 51.5381 72.7276 50.283C72.7276 50.2367 72.7256 50.1904 72.7195 50.142Z" fill="#212121" fill-opacity="0.2"/>
<path d="M50.001 34.3759C54.3928 34.3759 58.3696 36.1568 61.2504 39.0356L67.818 32.464C67.7696 32.4157 67.7233 32.3673 67.677 32.321L61.2504 38.7495C58.3696 35.8707 54.3928 34.0898 50.001 34.0898C41.2134 34.0898 34.0918 41.2113 34.0918 49.999C34.0918 50.0473 34.0938 50.0937 34.0938 50.142C34.1704 41.4209 41.2617 34.3759 50.001 34.3759Z" fill="#212121" fill-opacity="0.1"/>
<path d="M50.001 75.002C63.8087 75.002 75.002 63.8087 75.002 50.001C75.002 36.1933 63.8087 25 50.001 25C36.1933 25 25 36.1933 25 50.001C25 63.8087 36.1933 75.002 50.001 75.002Z" fill="url(#paint1_radial_482_31113)"/>
</g>
<defs>
<linearGradient id="paint0_linear_482_31113" x1="50" y1="0" x2="50" y2="100" gradientUnits="userSpaceOnUse">
<stop stop-color="#D1D1D1"/>
<stop offset="1" stop-color="#F8F5F5"/>
</linearGradient>
<radialGradient id="paint1_radial_482_31113" cx="0" cy="0" r="1" gradientUnits="userSpaceOnUse" gradientTransform="translate(32.3317 32.2748) scale(49.9157)">
<stop stop-color="white" stop-opacity="0.1"/>
<stop offset="1" stop-color="white" stop-opacity="0"/>
</radialGradient>
<clipPath id="clip0_482_31113">
<rect width="50" height="50" fill="white" transform="translate(25 25)"/>
</clipPath>
</defs>
</svg>
