<svg width="20" height="20" viewBox="0 0 20 20" fill="none" xmlns="http://www.w3.org/2000/svg">
<g clip-path="url(#clip0_341_28895)">
<path d="M10 2C9.91166 1.99875 9.82395 2.01507 9.74197 2.04801C9.65999 2.08095 9.58538 2.12986 9.52247 2.19189C9.45955 2.25392 9.4096 2.32784 9.3755 2.40934C9.3414 2.49085 9.32384 2.57831 9.32384 2.66666C9.32384 2.75501 9.3414 2.84248 9.3755 2.92399C9.4096 3.00549 9.45955 3.07941 9.52247 3.14144C9.58538 3.20347 9.65999 3.25237 9.74197 3.28532C9.82395 3.31826 9.91166 3.33458 10 3.33333C13.6897 3.33333 16.6667 6.31031 16.6667 10C16.6667 13.6897 13.6897 16.6667 10 16.6667C6.31031 16.6667 3.33333 13.6897 3.33333 10C3.33333 8.43349 3.87236 6.99789 4.77344 5.86198L6 7.33333L7.33333 2.66666L2.66667 3.33333L3.91146 4.82682C2.72444 6.22338 2 8.02786 2 10C2 14.4103 5.58969 18 10 18C14.4103 18 18 14.4103 18 10C18 5.58969 14.4103 2 10 2Z" fill="#474B53"/>
</g>
<defs>
<clipPath id="clip0_341_28895">
<rect width="20" height="20" fill="white"/>
</clipPath>
</defs>
</svg>
