<svg width="13" height="10" viewBox="0 0 13 10" fill="none" xmlns="http://www.w3.org/2000/svg">
<path d="M11.5909 0.795445C11.4697 0.799058 11.3546 0.849728 11.2701 0.936721L4.13334 8.07344L1.19663 5.13672C1.15362 5.09193 1.10212 5.05618 1.04513 5.03154C0.988132 5.00691 0.926797 4.9939 0.864711 4.99327C0.802626 4.99263 0.741038 5.0044 0.683555 5.02787C0.626072 5.05133 0.57385 5.08604 0.529947 5.12994C0.486043 5.17384 0.451341 5.22606 0.427873 5.28355C0.404405 5.34103 0.392642 5.40262 0.393274 5.4647C0.393905 5.52679 0.406919 5.58812 0.431552 5.64512C0.456185 5.70211 0.491942 5.75362 0.53673 5.79662L3.8034 9.06328C3.89092 9.15077 4.0096 9.19991 4.13334 9.19991C4.25709 9.19991 4.37577 9.15077 4.46329 9.06328L11.93 1.59662C11.9974 1.53107 12.0435 1.44668 12.0621 1.3545C12.0807 1.26232 12.0711 1.16666 12.0345 1.08006C11.9978 0.993451 11.9358 0.919937 11.8567 0.86915C11.7775 0.818364 11.6849 0.792673 11.5909 0.795445Z" fill="#229B61"/>
</svg>
