<svg width="20" height="20" viewBox="0 0 20 20" fill="none" xmlns="http://www.w3.org/2000/svg">
<path d="M12.55 17.5H7.45001C6.32501 17.5 5.35001 16.675 5.20001 15.55L4.07501 6.1C4.00001 5.8 4.30001 5.5 4.60001 5.5H15.475C15.775 5.5 16 5.8 16 6.1L14.8 15.55C14.575 16.675 13.675 17.5 12.55 17.5Z" fill="#DBDBDB"/>
<path d="M13 4H7V3.25C7 2.8 7.3 2.5 7.75 2.5H12.25C12.7 2.5 13 2.8 13 3.25V4Z" fill="#6C6C6C"/>
<path d="M15.25 3.25C14.8 3.25 5.2 3.25 4.75 3.25C3.925 3.25 3.25 3.925 3.25 4.75C3.25 5.575 3.925 6.25 4.75 6.25C5.2 6.25 14.8 6.25 15.25 6.25C16.075 6.25 16.75 5.575 16.75 4.75C16.75 3.925 16.075 3.25 15.25 3.25Z" fill="#6C6C6C"/>
</svg>
