<svg width="20" height="20" viewBox="0 0 20 20" fill="none" xmlns="http://www.w3.org/2000/svg">
<g clip-path="url(#clip0_403_31471)">
<path d="M9.99999 18.3334C14.6024 18.3334 18.3333 14.6025 18.3333 10.0001C18.3333 5.39771 14.6024 1.66675 9.99999 1.66675C5.39762 1.66675 1.66666 5.39771 1.66666 10.0001C1.66666 14.6025 5.39762 18.3334 9.99999 18.3334Z" fill="#DBDBDB"/>
<path d="M14.1667 10.8334H5.83333C5.37333 10.8334 5 10.4601 5 10.0001C5 9.54008 5.37333 9.16675 5.83333 9.16675H14.1667C14.6267 9.16675 15 9.54008 15 10.0001C15 10.4601 14.6267 10.8334 14.1667 10.8334Z" fill="#474B53"/>
<path d="M9.16666 14.1667V5.83333C9.16666 5.37333 9.53999 5 9.99999 5C10.46 5 10.8333 5.37333 10.8333 5.83333V14.1667C10.8333 14.6267 10.46 15 9.99999 15C9.53999 15 9.16666 14.6267 9.16666 14.1667Z" fill="#474B53"/>
</g>
<defs>
<clipPath id="clip0_403_31471">
<rect width="20" height="20" fill="white"/>
</clipPath>
</defs>
</svg>
