<svg width="16" height="16" viewBox="0 0 16 16" fill="none" xmlns="http://www.w3.org/2000/svg">
<path d="M13.5556 0H2.44444C1.09689 0 0 1.09689 0 2.44444V13.5556C0 14.9031 1.09689 16 2.44444 16H13.5556C14.9031 16 16 14.9031 16 13.5556V2.44444C16 1.09689 14.9031 0 13.5556 0ZM13.1382 5.58267L6.916 11.8049C6.78578 11.9351 6.61511 12 6.44444 12C6.27378 12 6.10311 11.9351 5.97289 11.8049L3.30622 9.13822C3.04578 8.87778 3.04578 8.456 3.30622 8.19556C3.56667 7.93511 3.98844 7.93511 4.24889 8.19556L6.444 10.3907L12.1947 4.64C12.4551 4.37956 12.8769 4.37956 13.1373 4.64C13.3978 4.90044 13.3982 5.32222 13.1382 5.58267Z" fill="#4671F6"/>
</svg>
