<svg width="19" height="18" viewBox="0 0 19 18" fill="none" xmlns="http://www.w3.org/2000/svg">
<path opacity="0.35" d="M16.8006 13.5188L10.7886 3.10508C10.5231 2.64458 10.0311 2.36108 9.50011 2.36108C8.96911 2.36108 8.47711 2.64458 8.21161 3.10508L2.19961 13.5188C1.93411 13.9793 1.93411 14.5456 2.19961 15.0068C2.46511 15.4666 2.95636 15.7501 3.48811 15.7501H15.5129C16.0439 15.7501 16.5359 15.4666 16.8014 15.0061C17.0669 14.5456 17.0669 13.9793 16.8006 13.5188Z" fill="#FF5E5E"/>
<path d="M10.3842 13.3095C10.3842 13.5742 10.2305 14.25 9.49547 14.25C8.76047 14.25 8.61572 13.5735 8.61572 13.3095C8.61572 13.0507 8.77922 12.3577 9.49547 12.3577C10.2117 12.3577 10.3842 13.0507 10.3842 13.3095ZM8.68922 10.4392V7.17598C8.68922 6.72823 9.05222 6.36523 9.49997 6.36523C9.94772 6.36523 10.3107 6.72823 10.3107 7.17598V10.44C10.3107 10.887 9.94772 11.25 9.49997 11.25C9.05222 11.25 8.68922 10.887 8.68922 10.4392Z" fill="#FF3D3D"/>
</svg>
