<svg width="48" height="48" viewBox="0 0 48 48" fill="none" xmlns="http://www.w3.org/2000/svg">
<g clip-path="url(#clip0_257_18989)">
<g filter="url(#filter0_d_257_18989)">
<path d="M8 38V10C8 6.686 10.686 4 14 4H26.7574C27.553 4 28.3161 4.31607 28.8787 4.87868L39.1213 15.1213C39.6839 15.6839 40 16.447 40 17.2426V38C40 41.314 37.314 44 34 44H14C10.686 44 8 41.314 8 38Z" fill="white"/>
<path d="M8.5 38V10C8.5 6.96214 10.9621 4.5 14 4.5H26.7574C27.4204 4.5 28.0563 4.76339 28.5251 5.23223L38.7678 15.4749C39.2366 15.9437 39.5 16.5796 39.5 17.2426V38C39.5 41.0379 37.0379 43.5 34 43.5H14C10.9621 43.5 8.5 41.0379 8.5 38Z" stroke="#DBDBDB"/>
</g>
<rect x="16" y="23" width="16" height="2" rx="1" fill="#6C6C6C"/>
<rect x="16" y="28" width="16" height="2" rx="1" fill="#6C6C6C"/>
<rect x="16" y="33" width="8" height="2" rx="1" fill="#6C6C6C"/>
<rect x="16" y="14" width="8" height="2" rx="1" fill="#DBDBDB"/>
<g clip-path="url(#clip1_257_18989)">
<path d="M32 31.5H42C43.3808 31.5 44.5 32.6192 44.5 34V44C44.5 45.3808 43.3808 46.5 42 46.5H32C30.6192 46.5 29.5 45.3808 29.5 44V34C29.5 32.6192 30.6192 31.5 32 31.5Z" fill="#BDCEEE"/>
<path d="M35.3334 37.8159V46.1492C35.3334 47.07 36.0792 47.8159 37 47.8159C37.9209 47.8159 38.6667 47.07 38.6667 46.1492V37.8159H35.3334Z" fill="#4671F6"/>
<path d="M40.4425 39C41.085 39 41.4083 38.225 40.9558 37.7683L37.7425 34.5242C37.3333 34.1117 36.6667 34.1117 36.2575 34.5242L33.0442 37.7683C32.5917 38.225 32.915 39 33.5575 39H40.4425Z" fill="#4671F6"/>
</g>
</g>
<defs>
<filter id="filter0_d_257_18989" x="7" y="4" width="34" height="42" filterUnits="userSpaceOnUse" color-interpolation-filters="sRGB">
<feFlood flood-opacity="0" result="BackgroundImageFix"/>
<feColorMatrix in="SourceAlpha" type="matrix" values="0 0 0 0 0 0 0 0 0 0 0 0 0 0 0 0 0 0 127 0" result="hardAlpha"/>
<feOffset dy="1"/>
<feGaussianBlur stdDeviation="0.5"/>
<feComposite in2="hardAlpha" operator="out"/>
<feColorMatrix type="matrix" values="0 0 0 0 0 0 0 0 0 0 0 0 0 0 0 0 0 0 0.1 0"/>
<feBlend mode="normal" in2="BackgroundImageFix" result="effect1_dropShadow_257_18989"/>
<feBlend mode="normal" in="SourceGraphic" in2="effect1_dropShadow_257_18989" result="shape"/>
</filter>
<clipPath id="clip0_257_18989">
<rect width="48" height="48" fill="white"/>
</clipPath>
<clipPath id="clip1_257_18989">
<rect width="20" height="20" fill="white" transform="translate(27 29)"/>
</clipPath>
</defs>
</svg>
