<svg width="680" height="482" viewBox="0 0 680 482" fill="none" xmlns="http://www.w3.org/2000/svg">
<rect x="464" y="207" width="207" height="450" fill="url(#paint0_linear_669_64114)"/>
<path d="M557.674 170.514C562.547 169.011 567.754 168.974 572.648 170.407L663.539 197.032C673.745 200.022 673.812 214.456 663.634 217.541L572.885 245.04C567.844 246.568 562.458 246.528 557.44 244.927L471.482 217.493C461.502 214.308 461.571 200.163 471.581 197.075L557.674 170.514Z" fill="white"/>
<rect x="166" y="163" width="349" height="319" fill="url(#paint1_linear_669_64114)"/>
<path d="M328.835 105.305C333.708 103.802 338.915 103.764 343.809 105.198L507.539 153.159C517.745 156.149 517.812 170.584 507.634 173.668L344.046 223.24C339.005 224.768 333.619 224.728 328.601 223.127L173.482 173.62C163.502 170.435 163.571 156.291 173.581 153.202L328.835 105.305Z" fill="white"/>
<rect x="9" y="252" width="207" height="304" fill="url(#paint2_linear_669_64114)"/>
<path d="M102.674 215.515C107.547 214.011 112.754 213.974 117.648 215.408L208.539 242.032C218.745 245.022 218.812 259.456 208.634 262.541L117.885 290.04C112.844 291.568 107.458 291.528 102.44 289.927L16.4817 262.493C6.50208 259.308 6.57056 245.164 16.5805 242.075L102.674 215.515Z" fill="white"/>
<g filter="url(#filter0_f_669_64114)">
<ellipse cx="346.877" cy="179.103" rx="55.9831" ry="5.885" transform="rotate(-8 346.877 179.103)" fill="#7294FF" fill-opacity="0.2"/>
</g>
<path d="M262.933 140.361L326.473 170.872L428.438 114.967L352.287 87.8005C350.135 87.0326 347.784 86.9694 345.61 87.6209L263.721 112.161C261.2 112.917 259.496 115.134 259.496 117.658L259.496 135.069C259.496 137.299 260.829 139.351 262.933 140.361Z" fill="url(#paint3_linear_669_64114)"/>
<path d="M323.601 147.821C323.601 145.187 325.435 142.841 328.084 142.085L424.026 114.703C427.926 113.59 431.785 116.325 431.785 120.203L431.785 137.891C431.785 140.517 429.964 142.857 427.326 143.621L331.384 171.395C327.478 172.525 323.601 169.789 323.601 165.902L323.601 147.821Z" fill="#4671F6"/>
<g opacity="0.5">
<path d="M262.435 103.374L326.473 134.095L428.438 78.1903L352.267 51.0163C350.127 50.2529 347.791 50.1859 345.627 50.8257L263.244 75.1846C260.711 75.9334 258.996 78.1555 258.996 80.6884L258.996 98.0807C258.996 100.311 260.33 102.364 262.435 103.374Z" fill="url(#paint4_linear_669_64114)"/>
<path d="M323.601 111.044C323.601 108.41 325.435 106.064 328.084 105.308L424.026 77.9264C427.926 76.8133 431.785 79.5484 431.785 83.4261L431.785 101.115C431.785 103.74 429.964 106.08 427.326 106.844L331.384 134.618C327.478 135.748 323.601 133.012 323.601 129.125L323.601 111.044Z" fill="#4671F6"/>
</g>
<path d="M262.474 67.1475L326.473 97.318L428.438 41.4134L352.299 14.2508C350.14 13.4804 347.781 13.4194 345.601 14.0774L263.209 38.9524C260.694 39.7117 258.996 41.9258 258.996 44.4459L258.996 61.8359C258.996 64.0809 260.348 66.1453 262.474 67.1475Z" fill="url(#paint5_linear_669_64114)"/>
<path d="M323.601 74.267C323.601 71.6331 325.435 69.287 328.084 68.5308L424.026 41.1495C427.926 40.0364 431.785 42.7716 431.785 46.6492L431.785 64.3376C431.785 66.9629 429.964 69.3034 427.326 70.0671L331.384 97.8409C327.478 98.9716 323.601 96.2352 323.601 92.348L323.601 74.267Z" fill="#4671F6"/>
<g filter="url(#filter1_f_669_64114)">
<path d="M610.838 201.59C611.009 202.559 594.14 204.534 582.962 206.505C571.785 208.476 554.566 210.703 554.395 209.734C554.224 208.765 563.147 206.382 574.324 204.411C585.502 202.44 610.668 200.621 610.838 201.59Z" fill="#7294FF" fill-opacity="0.6"/>
</g>
<path d="M549.742 191.64L560.758 197.274L609.974 104.969L596.426 100.042C594.504 99.3435 592.415 99.2506 590.439 99.7761L550.932 110.283C548.304 110.982 546.474 113.362 546.474 116.082L546.474 186.298C546.474 188.551 547.736 190.614 549.742 191.64Z" fill="url(#paint6_linear_669_64114)"/>
<path d="M558.431 121.656C558.431 118.902 560.307 116.501 562.979 115.834L607.107 104.828C610.893 103.883 614.559 106.747 614.559 110.649L614.559 179.024C614.559 181.664 612.833 183.994 610.307 184.764L566.179 198.205C562.325 199.379 558.431 196.495 558.431 192.466L558.431 121.656Z" fill="#4671F6"/>
<circle cx="585.974" cy="143.468" r="20" fill="url(#paint7_linear_669_64114)"/>
<circle cx="585.974" cy="143.468" r="4" fill="#4671F6"/>
<path d="M565.974 165.338C565.974 162.925 567.195 160.675 569.219 159.36L581.178 151.586C582.765 150.555 584.764 152.1 584.165 153.896L579.564 167.7C578.614 170.548 575.95 172.469 572.948 172.469V172.469C569.096 172.469 565.974 169.347 565.974 165.495L565.974 165.338Z" fill="#BDCEEE"/>
<g filter="url(#filter2_f_669_64114)">
<path d="M138.655 252.209C138.757 252.784 119.821 255.53 107.214 257.753C94.6067 259.976 75.2596 262.907 75.1582 262.331C75.0568 261.756 85.1947 259.488 97.8018 257.265C110.409 255.042 138.554 251.634 138.655 252.209Z" fill="#7294FF"/>
</g>
<g clip-path="url(#clip0_669_64114)">
<path d="M98.6802 243.49L78.3023 248.665C71.5491 250.38 66.0756 246.123 66.0756 239.156V197.106C66.0756 190.138 71.5491 183.101 78.3023 181.386L98.6802 176.211C105.433 174.495 110.907 178.753 110.907 185.72V227.77C110.907 234.738 105.433 241.775 98.6802 243.49Z" fill="url(#paint8_linear_669_64114)"/>
<path fill-rule="evenodd" clip-rule="evenodd" d="M147.587 184.815L139.436 186.885C134.932 188.029 131.285 185.191 131.285 180.545L129.247 181.062C126.997 181.634 125.171 183.986 125.171 186.303V215.737C125.171 218.054 126.997 219.478 129.247 218.907L131.285 218.39C131.285 213.743 134.932 209.053 139.436 207.91L147.587 205.839C152.091 204.696 155.738 207.533 155.738 212.179V220.589C155.738 225.236 152.091 229.925 147.587 231.069L139.436 233.139C134.932 234.283 131.285 231.446 131.285 226.8L129.247 227.317C122.506 229.029 117.02 224.762 117.02 217.807V207.295L110.907 208.848V200.438L117.02 198.885V188.373C117.02 181.418 122.506 174.365 129.247 172.653L131.285 172.135C131.285 167.489 134.932 162.799 139.436 161.655L147.587 159.585C152.091 158.441 155.738 161.278 155.738 165.925V174.335C155.738 178.981 152.091 183.671 147.587 184.815Z" fill="url(#paint9_linear_669_64114)"/>
</g>
<g clip-path="url(#clip1_669_64114)">
<path d="M102.242 245.865L81.8642 251.04C75.111 252.755 69.6375 248.498 69.6375 241.53V199.481C69.6375 192.513 75.111 185.476 81.8642 183.76L102.242 178.585C108.995 176.87 114.469 181.127 114.469 188.095V230.144C114.469 237.112 108.995 244.149 102.242 245.865Z" fill="#BDCEEE"/>
<path d="M151.149 187.189L142.998 189.259C138.494 190.403 134.847 187.566 134.847 182.92V174.51C134.847 169.863 138.494 165.173 142.998 164.03L151.149 161.959C155.653 160.816 159.3 163.653 159.3 168.299V176.709C159.3 181.356 155.653 186.045 151.149 187.189Z" fill="#BDCEEE"/>
<path d="M151.149 233.444L142.998 235.514C138.494 236.658 134.847 233.821 134.847 229.174V220.764C134.847 216.118 138.494 211.428 142.998 210.284L151.149 208.214C155.653 207.07 159.3 209.907 159.3 214.554V222.964C159.3 227.61 155.653 232.3 151.149 233.444Z" fill="#BDCEEE"/>
<path fill-rule="evenodd" clip-rule="evenodd" d="M132.809 229.692L134.847 229.174V220.764L132.809 221.282C130.559 221.853 128.733 220.429 128.733 218.112V188.677C128.733 186.36 130.559 184.008 132.809 183.437L134.847 182.92V174.51L132.809 175.027C126.068 176.739 120.582 183.792 120.582 190.747V201.26L114.469 202.812V211.222L120.582 209.67V220.182C120.582 227.137 126.068 231.404 132.809 229.692Z" fill="url(#paint10_linear_669_64114)"/>
<path d="M100.204 200.128L83.902 204.268C80.5274 205.125 77.7886 202.999 77.7886 199.513C77.7886 196.027 80.5274 192.51 83.902 191.653L100.204 187.513C103.579 186.656 106.318 188.782 106.318 192.267C106.318 195.753 103.579 199.27 100.204 200.128Z" fill="url(#paint11_linear_669_64114)"/>
<path d="M100.204 216.947L83.902 221.088C80.5274 221.945 77.7886 219.819 77.7886 216.333C77.7886 212.847 80.5274 209.33 83.902 208.473L100.204 204.332C103.579 203.475 106.318 205.601 106.318 209.087C106.318 212.573 103.579 216.09 100.204 216.947Z" fill="url(#paint12_linear_669_64114)"/>
<path d="M92.0531 240.042C95.4294 239.185 98.1665 235.666 98.1665 232.182C98.1665 228.699 95.4294 226.57 92.0531 227.427C88.6768 228.285 85.9398 231.804 85.9398 235.287C85.9398 238.771 88.6768 240.9 92.0531 240.042Z" fill="url(#paint13_linear_669_64114)"/>
</g>
<defs>
<filter id="filter0_f_669_64114" x="277.432" y="155.372" width="138.889" height="47.4606" filterUnits="userSpaceOnUse" color-interpolation-filters="sRGB">
<feFlood flood-opacity="0" result="BackgroundImageFix"/>
<feBlend mode="normal" in="SourceGraphic" in2="BackgroundImageFix" result="shape"/>
<feGaussianBlur stdDeviation="7" result="effect1_foregroundBlur_669_64114"/>
</filter>
<filter id="filter1_f_669_64114" x="540.393" y="187.322" width="84.447" height="36.6462" filterUnits="userSpaceOnUse" color-interpolation-filters="sRGB">
<feFlood flood-opacity="0" result="BackgroundImageFix"/>
<feBlend mode="normal" in="SourceGraphic" in2="BackgroundImageFix" result="shape"/>
<feGaussianBlur stdDeviation="7" result="effect1_foregroundBlur_669_64114"/>
</filter>
<filter id="filter2_f_669_64114" x="61.1575" y="238.145" width="91.4981" height="38.2601" filterUnits="userSpaceOnUse" color-interpolation-filters="sRGB">
<feFlood flood-opacity="0" result="BackgroundImageFix"/>
<feBlend mode="normal" in="SourceGraphic" in2="BackgroundImageFix" result="shape"/>
<feGaussianBlur stdDeviation="7" result="effect1_foregroundBlur_669_64114"/>
</filter>
<linearGradient id="paint0_linear_669_64114" x1="671" y1="432" x2="464" y2="432" gradientUnits="userSpaceOnUse">
<stop stop-color="#D9D9D9"/>
<stop offset="0.432292" stop-color="#D9D9D9"/>
<stop offset="0.598958" stop-color="#F2F2F2"/>
<stop offset="1" stop-color="#FCFBFC"/>
</linearGradient>
<linearGradient id="paint1_linear_669_64114" x1="515" y1="322.5" x2="166" y2="322.5" gradientUnits="userSpaceOnUse">
<stop stop-color="#D9D9D9"/>
<stop offset="0.432292" stop-color="#D9D9D9"/>
<stop offset="0.598958" stop-color="#F2F2F2"/>
<stop offset="1" stop-color="#FCFBFC"/>
</linearGradient>
<linearGradient id="paint2_linear_669_64114" x1="216" y1="404" x2="9" y2="404" gradientUnits="userSpaceOnUse">
<stop stop-color="#D9D9D9"/>
<stop offset="0.432292" stop-color="#D9D9D9"/>
<stop offset="0.598958" stop-color="#F2F2F2"/>
<stop offset="1" stop-color="#FCFBFC"/>
</linearGradient>
<linearGradient id="paint3_linear_669_64114" x1="346.466" y1="25.539" x2="263.356" y2="179.18" gradientUnits="userSpaceOnUse">
<stop stop-color="#5780FF"/>
<stop offset="0.588542" stop-color="#698EFF"/>
<stop offset="0.692708" stop-color="#A4BCFD"/>
<stop offset="1" stop-color="#A4BCFD"/>
</linearGradient>
<linearGradient id="paint4_linear_669_64114" x1="346.466" y1="-11.2379" x2="263.356" y2="142.403" gradientUnits="userSpaceOnUse">
<stop stop-color="#5780FF"/>
<stop offset="0.588542" stop-color="#698EFF"/>
<stop offset="0.692708" stop-color="#A4BCFD"/>
<stop offset="1" stop-color="#A4BCFD"/>
</linearGradient>
<linearGradient id="paint5_linear_669_64114" x1="346.466" y1="-48.0147" x2="263.356" y2="105.626" gradientUnits="userSpaceOnUse">
<stop stop-color="#5780FF"/>
<stop offset="0.588542" stop-color="#698EFF"/>
<stop offset="0.692708" stop-color="#A4BCFD"/>
<stop offset="1" stop-color="#A4BCFD"/>
</linearGradient>
<linearGradient id="paint6_linear_669_64114" x1="584.974" y1="85.4687" x2="537.974" y2="144.969" gradientUnits="userSpaceOnUse">
<stop stop-color="#5780FF"/>
<stop offset="0.536458" stop-color="#698EFF"/>
<stop offset="0.635417" stop-color="#A4BCFD"/>
<stop offset="1" stop-color="#A4BCFD"/>
</linearGradient>
<linearGradient id="paint7_linear_669_64114" x1="549.474" y1="177.469" x2="605.974" y2="132.469" gradientUnits="userSpaceOnUse">
<stop stop-color="#D9D9D9"/>
<stop offset="1" stop-color="#D9D9D9" stop-opacity="0"/>
</linearGradient>
<linearGradient id="paint8_linear_669_64114" x1="56.6573" y1="204.918" x2="80.9381" y2="167.289" gradientUnits="userSpaceOnUse">
<stop stop-color="#668BFF"/>
<stop offset="0.401042" stop-color="#6A8EFF"/>
<stop offset="0.578125" stop-color="#A5BDFE"/>
<stop offset="1" stop-color="#A5BDFE"/>
</linearGradient>
<linearGradient id="paint9_linear_669_64114" x1="114.24" y1="236.975" x2="131.652" y2="153.599" gradientUnits="userSpaceOnUse">
<stop stop-color="#668CFF"/>
<stop offset="0.447917" stop-color="#688DFF"/>
<stop offset="0.588542" stop-color="#8BA9FE"/>
<stop offset="1" stop-color="#BDCEEE"/>
</linearGradient>
<linearGradient id="paint10_linear_669_64114" x1="124.658" y1="177.097" x2="137.7" y2="228.45" gradientUnits="userSpaceOnUse">
<stop stop-color="#BDCEEE"/>
<stop offset="1" stop-color="#4671F6"/>
</linearGradient>
<linearGradient id="paint11_linear_669_64114" x1="92.0531" y1="189.583" x2="95.0628" y2="201.433" gradientUnits="userSpaceOnUse">
<stop stop-color="#BDCEEE"/>
<stop offset="1" stop-color="#4671F6"/>
</linearGradient>
<linearGradient id="paint12_linear_669_64114" x1="92.0531" y1="206.403" x2="95.0628" y2="218.253" gradientUnits="userSpaceOnUse">
<stop stop-color="#BDCEEE"/>
<stop offset="1" stop-color="#4671F6"/>
</linearGradient>
<linearGradient id="paint13_linear_669_64114" x1="92.0531" y1="227.427" x2="95.0628" y2="239.278" gradientUnits="userSpaceOnUse">
<stop stop-color="#BDCEEE"/>
<stop offset="1" stop-color="#4671F6"/>
</linearGradient>
<clipPath id="clip0_669_64114">
<rect width="100.919" height="100.919" fill="white" transform="matrix(0.969231 -0.246153 0 1 62 168.706)"/>
</clipPath>
<clipPath id="clip1_669_64114">
<rect width="100.919" height="100.919" fill="white" transform="matrix(0.969231 -0.246153 0 1 65.5619 171.081)"/>
</clipPath>
</defs>
</svg>
