<svg width="20" height="20" viewBox="0 0 20 20" fill="none" xmlns="http://www.w3.org/2000/svg">
<path d="M12.3783 2.5025C11.4317 2.5025 10.5658 3.0375 10.1425 3.88417L10 4.16917L9.85751 3.88417C9.43418 3.0375 8.56834 2.5025 7.62168 2.5025H5.00001C4.07918 2.5025 3.33334 3.24833 3.33334 4.16917V15.0025C3.33334 15.4625 3.70668 15.8358 4.16668 15.8358H15.8333C16.2933 15.8358 16.6667 15.4625 16.6667 15.0025V4.16917C16.6667 3.24833 15.9208 2.5025 15 2.5025H12.3783Z" fill="#DFE9FC"/>
<path fill-rule="evenodd" clip-rule="evenodd" d="M16.6667 4.16917V15.0025C16.6667 15.4625 16.2933 15.8358 15.8333 15.8358H12.5H7.49999H4.16666C3.70666 15.8358 3.33332 15.4625 3.33332 15.0025V4.16917C2.41249 4.16917 1.66666 4.915 1.66666 5.83583V15.0025C1.66666 16.3833 2.78582 17.5025 4.16666 17.5025H8.14916C8.60666 18.0108 9.26249 18.3358 9.99999 18.3358C10.7375 18.3358 11.3933 18.0108 11.8508 17.5025H15.8333C17.2142 17.5025 18.3333 16.3833 18.3333 15.0025V5.83583C18.3333 4.915 17.5875 4.16917 16.6667 4.16917ZM7.5 8.33333H5.83333C5.37333 8.33333 5 7.96 5 7.5C5 7.04 5.37333 6.66667 5.83333 6.66667H7.5C7.96 6.66667 8.33333 7.04 8.33333 7.5C8.33333 7.96 7.96 8.33333 7.5 8.33333ZM12.5 8.33333H14.1667C14.6267 8.33333 15 7.96 15 7.5C15 7.04 14.6267 6.66667 14.1667 6.66667H12.5C12.04 6.66667 11.6667 7.04 11.6667 7.5C11.6667 7.96 12.04 8.33333 12.5 8.33333ZM7.5 11.6667H5.83333C5.37333 11.6667 5 11.2933 5 10.8333C5 10.3733 5.37333 10 5.83333 10H7.5C7.96 10 8.33333 10.3733 8.33333 10.8333C8.33333 11.2933 7.96 11.6667 7.5 11.6667ZM12.5 11.6667H14.1667C14.6267 11.6667 15 11.2933 15 10.8333C15 10.3733 14.6267 10 14.1667 10H12.5C12.04 10 11.6667 10.3733 11.6667 10.8333C11.6667 11.2933 12.04 11.6667 12.5 11.6667Z" fill="url(#paint0_linear_669_31246)"/>
<defs>
<linearGradient id="paint0_linear_669_31246" x1="18" y1="18" x2="1.5" y2="3" gradientUnits="userSpaceOnUse">
<stop stop-color="#688BF6"/>
<stop offset="1" stop-color="#A1B7F3"/>
</linearGradient>
</defs>
</svg>
