<svg width="20" height="20" viewBox="0 0 20 20" fill="none" xmlns="http://www.w3.org/2000/svg">
<g opacity="0.5">
<path d="M3.32529 2.49186C3.15952 2.4919 2.99752 2.54139 2.86001 2.63398C2.7225 2.72657 2.61573 2.85807 2.55335 3.01167C2.49097 3.16526 2.47581 3.33397 2.50982 3.49622C2.54382 3.65847 2.62544 3.8069 2.74424 3.92252L4.23024 5.40853C2.62035 6.70144 1.57636 8.28667 1.05967 9.21712C0.783001 9.71545 0.79209 10.3154 1.06292 10.8171C2.02542 12.5987 4.7926 16.6667 10.0001 16.6667C11.7297 16.6667 13.1718 16.2123 14.3686 15.5469L16.0776 17.2559C16.1544 17.3358 16.2463 17.3997 16.3481 17.4437C16.4499 17.4877 16.5594 17.5109 16.6703 17.512C16.7811 17.5132 16.8911 17.4922 16.9938 17.4502C17.0964 17.4083 17.1897 17.3464 17.2681 17.268C17.3465 17.1896 17.4084 17.0963 17.4503 16.9937C17.4923 16.891 17.5133 16.781 17.5121 16.6702C17.511 16.5593 17.4878 16.4498 17.4438 16.348C17.3998 16.2462 17.3359 16.1543 17.256 16.0775L3.92262 2.74414C3.84497 2.66431 3.75209 2.60086 3.6495 2.55752C3.5469 2.51419 3.43666 2.49187 3.32529 2.49186ZM10.0001 3.33333C8.9901 3.33333 8.08826 3.49976 7.26409 3.75976L9.39788 5.89355C9.59538 5.86439 9.79426 5.83333 10.0001 5.83333C12.3009 5.83333 14.1668 7.69916 14.1668 10C14.1668 10.2058 14.1357 10.4047 14.1065 10.6022L16.9646 13.4603C17.8596 12.467 18.5147 11.4594 18.9063 10.7894C19.2013 10.2861 19.2002 9.66777 18.921 9.15527C17.9468 7.3611 15.1826 3.33333 10.0001 3.33333ZM6.52842 7.7067L7.74749 8.92578C7.59023 9.25069 7.5001 9.6138 7.5001 10C7.5001 11.3808 8.61926 12.5 10.0001 12.5C10.3863 12.5 10.7494 12.4099 11.0743 12.2526L12.295 13.4733C11.4671 14.0223 10.4339 14.2853 9.33278 14.1146C7.58445 13.8429 6.15718 12.4156 5.88551 10.6673C5.71482 9.56666 5.97989 8.53449 6.52842 7.7067Z" fill="#6C6C6C"/>
</g>
</svg>
