<svg width="70" height="70" viewBox="0 0 70 70" fill="none" xmlns="http://www.w3.org/2000/svg">
<circle cx="35" cy="35" r="33" fill="white" stroke="#DBDBDB" stroke-width="4"/>
<mask id="path-2-inside-1_683_30446" fill="white">
<path d="M56.0635 62.9522C51.6524 66.2763 46.5171 68.5091 41.0777 69.4683C35.6382 70.4274 30.049 70.0855 24.767 68.4707C19.485 66.8558 14.6601 64.0137 10.687 60.1769C6.71379 56.3401 3.70509 51.6173 1.90685 46.3949C0.108621 41.1725 -0.428086 35.5986 0.340615 30.129C1.10932 24.6593 3.1616 19.4493 6.32967 14.9248C9.49773 10.4004 13.6916 6.68991 18.5685 4.09685C23.4453 1.50378 28.8666 0.101732 34.3891 0.00533118L34.4563 3.85475C29.5413 3.94054 24.7163 5.18837 20.3759 7.49619C16.0356 9.80402 12.303 13.1063 9.4834 17.1331C6.66382 21.1599 4.83729 25.7968 4.15315 30.6648C3.469 35.5327 3.94667 40.4935 5.5471 45.1415C7.14753 49.7894 9.82527 53.9926 13.3614 57.4074C16.8975 60.8222 21.1916 63.3517 25.8926 64.7889C30.5936 66.2261 35.568 66.5304 40.4091 65.6768C45.2503 64.8231 49.8206 62.8359 53.7465 59.8775L56.0635 62.9522Z"/>
</mask>
<path d="M56.0635 62.9522C51.6524 66.2763 46.5171 68.5091 41.0777 69.4683C35.6382 70.4274 30.049 70.0855 24.767 68.4707C19.485 66.8558 14.6601 64.0137 10.687 60.1769C6.71379 56.3401 3.70509 51.6173 1.90685 46.3949C0.108621 41.1725 -0.428086 35.5986 0.340615 30.129C1.10932 24.6593 3.1616 19.4493 6.32967 14.9248C9.49773 10.4004 13.6916 6.68991 18.5685 4.09685C23.4453 1.50378 28.8666 0.101732 34.3891 0.00533118L34.4563 3.85475C29.5413 3.94054 24.7163 5.18837 20.3759 7.49619C16.0356 9.80402 12.303 13.1063 9.4834 17.1331C6.66382 21.1599 4.83729 25.7968 4.15315 30.6648C3.469 35.5327 3.94667 40.4935 5.5471 45.1415C7.14753 49.7894 9.82527 53.9926 13.3614 57.4074C16.8975 60.8222 21.1916 63.3517 25.8926 64.7889C30.5936 66.2261 35.568 66.5304 40.4091 65.6768C45.2503 64.8231 49.8206 62.8359 53.7465 59.8775L56.0635 62.9522Z" fill="white" stroke="#4671F6" stroke-width="8" mask="url(#path-2-inside-1_683_30446)"/>
<path d="M35.2003 42.1989C34.3101 42.1989 33.5099 42.0284 32.7997 41.6875C32.0942 41.3419 31.5308 40.8684 31.1094 40.267C30.688 39.6657 30.4631 38.9792 30.4347 38.2074H32.5653C32.6174 38.8324 32.8944 39.3461 33.3963 39.7486C33.8982 40.151 34.4995 40.3523 35.2003 40.3523C35.759 40.3523 36.2538 40.2244 36.6847 39.9688C37.1203 39.7083 37.4612 39.3509 37.7074 38.8963C37.9583 38.4418 38.0838 37.9233 38.0838 37.3409C38.0838 36.7491 37.956 36.2211 37.7003 35.7571C37.4446 35.2931 37.0919 34.9285 36.642 34.6634C36.197 34.3982 35.6856 34.2633 35.108 34.2585C34.6676 34.2585 34.2249 34.3343 33.7798 34.4858C33.3348 34.6373 32.9749 34.8362 32.7003 35.0824L30.6903 34.7841L31.5071 27.4545H39.5043V29.3366H33.3324L32.8707 33.4062H32.956C33.2401 33.1316 33.6165 32.902 34.0852 32.7173C34.5587 32.5327 35.0653 32.4403 35.6051 32.4403C36.4905 32.4403 37.2789 32.651 37.9702 33.0724C38.6662 33.4938 39.2131 34.0691 39.6108 34.7983C40.0133 35.5227 40.2121 36.3561 40.2074 37.2983C40.2121 38.2405 39.9991 39.081 39.5682 39.8196C39.142 40.5582 38.5502 41.1406 37.7926 41.5668C37.0398 41.9882 36.1757 42.1989 35.2003 42.1989Z" fill="#474B53"/>
</svg>
