<svg width="20" height="20" viewBox="0 0 20 20" fill="none" xmlns="http://www.w3.org/2000/svg">
<path d="M16.6667 15.6525V14.2483C16.8108 14.225 16.9475 14.1483 17.0358 14.0233C17.2208 13.7617 17.125 13.3933 16.8325 13.2617C16.7833 13.2392 16.7233 13.2225 16.6658 13.2033V4.16667C16.6658 2.78583 15.5467 1.66667 14.1658 1.66667H5.83334C4.45251 1.66667 3.33334 2.78583 3.33334 4.16667V15.8333C3.33334 17.2142 4.45251 18.3333 5.83334 18.3333H14.1667C14.3383 18.3333 14.5058 18.3158 14.6683 18.2825C14.8783 18.3967 15.1292 18.4875 15.4325 18.5192V18.7867C15.4325 18.9967 15.6025 19.1667 15.8125 19.1667C16.0225 19.1667 16.1925 18.9967 16.1925 18.7867V18.4517C16.8967 18.2358 17.2758 17.5933 17.2758 16.8558C17.2767 16.2283 16.9983 15.89 16.6667 15.6525Z" fill="#DFE9FC"/>
<path d="M15.8333 11.6667C13.5325 11.6667 11.6667 13.5325 11.6667 15.8333C11.6667 18.1342 13.5325 20 15.8333 20C18.1342 20 20 18.1342 20 15.8333C20 13.5325 18.1342 11.6667 15.8333 11.6667ZM16.1925 18.4508V18.7858C16.1925 18.9958 16.0225 19.1658 15.8125 19.1658C15.6025 19.1658 15.4325 18.9958 15.4325 18.7858V18.5183C15.1158 18.485 14.8525 18.39 14.6375 18.2683C14.3817 18.1233 14.315 17.7833 14.4808 17.5408L14.4958 17.5183C14.6392 17.3083 14.9192 17.2217 15.1442 17.3392C15.2767 17.4083 15.44 17.4617 15.6292 17.4617C16.0542 17.4617 16.1325 17.1025 16.1325 16.9367C16.1325 16.0792 14.4192 16.3775 14.4192 14.7275C14.4192 13.9817 14.8333 13.3992 15.4692 13.1867V12.8783C15.4692 12.6683 15.6392 12.4983 15.8492 12.4983C16.0592 12.4983 16.2292 12.6683 16.2292 12.8783V13.1067C16.4717 13.13 16.6717 13.1875 16.8325 13.26C17.125 13.3917 17.2208 13.76 17.0358 14.0217C16.8917 14.2258 16.6208 14.3217 16.3925 14.2183C16.2958 14.1742 16.1808 14.1442 16.0517 14.1442C15.9208 14.1442 15.5417 14.195 15.5417 14.6775C15.5417 15.4967 17.2767 15.2817 17.2767 16.8533C17.2767 17.5925 16.8967 18.235 16.1925 18.4508Z" fill="url(#paint0_linear_669_31266)"/>
<path d="M13.3333 4.16667H6.66668C6.20668 4.16667 5.83334 4.54 5.83334 5V5.83333C5.83334 6.29333 6.20668 6.66667 6.66668 6.66667H13.3333C13.7933 6.66667 14.1667 6.29333 14.1667 5.83333V5C14.1667 4.54 13.7933 4.16667 13.3333 4.16667Z" fill="url(#paint1_linear_669_31266)"/>
<path d="M9.99999 10C10.4602 10 10.8333 9.6269 10.8333 9.16667C10.8333 8.70643 10.4602 8.33333 9.99999 8.33333C9.53975 8.33333 9.16666 8.70643 9.16666 9.16667C9.16666 9.6269 9.53975 10 9.99999 10Z" fill="url(#paint2_linear_669_31266)"/>
<path d="M13.3333 10C13.7936 10 14.1667 9.6269 14.1667 9.16667C14.1667 8.70643 13.7936 8.33333 13.3333 8.33333C12.8731 8.33333 12.5 8.70643 12.5 9.16667C12.5 9.6269 12.8731 10 13.3333 10Z" fill="url(#paint3_linear_669_31266)"/>
<path d="M6.66668 10C7.12691 10 7.50001 9.6269 7.50001 9.16667C7.50001 8.70643 7.12691 8.33333 6.66668 8.33333C6.20644 8.33333 5.83334 8.70643 5.83334 9.16667C5.83334 9.6269 6.20644 10 6.66668 10Z" fill="url(#paint4_linear_669_31266)"/>
<path d="M9.99999 13.3333C10.4602 13.3333 10.8333 12.9602 10.8333 12.5C10.8333 12.0398 10.4602 11.6667 9.99999 11.6667C9.53975 11.6667 9.16666 12.0398 9.16666 12.5C9.16666 12.9602 9.53975 13.3333 9.99999 13.3333Z" fill="url(#paint5_linear_669_31266)"/>
<path d="M9.99999 16.6667C10.4602 16.6667 10.8333 16.2936 10.8333 15.8333C10.8333 15.3731 10.4602 15 9.99999 15C9.53975 15 9.16666 15.3731 9.16666 15.8333C9.16666 16.2936 9.53975 16.6667 9.99999 16.6667Z" fill="url(#paint6_linear_669_31266)"/>
<path d="M6.66668 13.3333C7.12691 13.3333 7.50001 12.9602 7.50001 12.5C7.50001 12.0398 7.12691 11.6667 6.66668 11.6667C6.20644 11.6667 5.83334 12.0398 5.83334 12.5C5.83334 12.9602 6.20644 13.3333 6.66668 13.3333Z" fill="url(#paint7_linear_669_31266)"/>
<path d="M6.66668 16.6667C7.12691 16.6667 7.50001 16.2936 7.50001 15.8333C7.50001 15.3731 7.12691 15 6.66668 15C6.20644 15 5.83334 15.3731 5.83334 15.8333C5.83334 16.2936 6.20644 16.6667 6.66668 16.6667Z" fill="url(#paint8_linear_669_31266)"/>
<defs>
<linearGradient id="paint0_linear_669_31266" x1="15.8333" y1="11.6667" x2="15.8333" y2="20" gradientUnits="userSpaceOnUse">
<stop stop-color="#A7BCF3"/>
<stop offset="1" stop-color="#6085F5"/>
</linearGradient>
<linearGradient id="paint1_linear_669_31266" x1="10" y1="4.16667" x2="10" y2="6.66667" gradientUnits="userSpaceOnUse">
<stop stop-color="#A7BCF3"/>
<stop offset="1" stop-color="#6085F5"/>
</linearGradient>
<linearGradient id="paint2_linear_669_31266" x1="9.99999" y1="8.33333" x2="9.99999" y2="10" gradientUnits="userSpaceOnUse">
<stop stop-color="#A7BCF3"/>
<stop offset="1" stop-color="#6085F5"/>
</linearGradient>
<linearGradient id="paint3_linear_669_31266" x1="13.3333" y1="8.33333" x2="13.3333" y2="10" gradientUnits="userSpaceOnUse">
<stop stop-color="#A7BCF3"/>
<stop offset="1" stop-color="#6085F5"/>
</linearGradient>
<linearGradient id="paint4_linear_669_31266" x1="6.66668" y1="8.33333" x2="6.66668" y2="10" gradientUnits="userSpaceOnUse">
<stop stop-color="#A7BCF3"/>
<stop offset="1" stop-color="#6085F5"/>
</linearGradient>
<linearGradient id="paint5_linear_669_31266" x1="9.99999" y1="11.6667" x2="9.99999" y2="13.3333" gradientUnits="userSpaceOnUse">
<stop stop-color="#A7BCF3"/>
<stop offset="1" stop-color="#6085F5"/>
</linearGradient>
<linearGradient id="paint6_linear_669_31266" x1="9.99999" y1="15" x2="9.99999" y2="16.6667" gradientUnits="userSpaceOnUse">
<stop stop-color="#A7BCF3"/>
<stop offset="1" stop-color="#6085F5"/>
</linearGradient>
<linearGradient id="paint7_linear_669_31266" x1="6.66668" y1="11.6667" x2="6.66668" y2="13.3333" gradientUnits="userSpaceOnUse">
<stop stop-color="#A7BCF3"/>
<stop offset="1" stop-color="#6085F5"/>
</linearGradient>
<linearGradient id="paint8_linear_669_31266" x1="6.66668" y1="15" x2="6.66668" y2="16.6667" gradientUnits="userSpaceOnUse">
<stop stop-color="#A7BCF3"/>
<stop offset="1" stop-color="#6085F5"/>
</linearGradient>
</defs>
</svg>
