<svg width="20" height="20" viewBox="0 0 20 20" fill="none" xmlns="http://www.w3.org/2000/svg">
<g opacity="0.5">
<path d="M10 3.33334C4.285 3.33334 1.57142 8.2322 0.913085 9.63054C0.803085 9.86387 0.803085 10.1345 0.913085 10.3678C1.57142 11.767 4.285 16.6667 10 16.6667C15.695 16.6667 18.4104 11.8025 19.0804 10.3841C19.1954 10.14 19.1954 9.86005 19.0804 9.61589C18.4104 8.19755 15.695 3.33334 10 3.33334ZM10 5.83334C12.3008 5.83334 14.1667 7.69917 14.1667 10C14.1667 12.3008 12.3008 14.1667 10 14.1667C7.69917 14.1667 5.83333 12.3008 5.83333 10C5.83333 7.69917 7.69917 5.83334 10 5.83334ZM10 7.5C9.33696 7.5 8.70107 7.76339 8.23223 8.23223C7.76339 8.70108 7.5 9.33696 7.5 10C7.5 10.663 7.76339 11.2989 8.23223 11.7678C8.70107 12.2366 9.33696 12.5 10 12.5C10.663 12.5 11.2989 12.2366 11.7678 11.7678C12.2366 11.2989 12.5 10.663 12.5 10C12.5 9.33696 12.2366 8.70108 11.7678 8.23223C11.2989 7.76339 10.663 7.5 10 7.5Z" fill="#6C6C6C"/>
</g>
</svg>
