<svg width="20" height="20" viewBox="0 0 20 20" fill="none" xmlns="http://www.w3.org/2000/svg">
<path fill-rule="evenodd" clip-rule="evenodd" d="M15 17.5H16.6667C17.5875 17.5 18.3333 16.7542 18.3333 15.8333V10C18.3333 9.07916 17.5875 8.33333 16.6667 8.33333H15C14.0792 8.33333 13.3333 9.07916 13.3333 10V15.8333C13.3333 16.7542 14.0792 17.5 15 17.5ZM10.8333 17.5H9.16667C8.24583 17.5 7.5 16.7542 7.5 15.8333V12.5C7.5 11.5792 8.24583 10.8333 9.16667 10.8333H10.8333C11.7542 10.8333 12.5 11.5792 12.5 12.5V15.8333C12.5 16.7542 11.7542 17.5 10.8333 17.5ZM4.99999 17.5H3.33332C2.41249 17.5 1.66666 16.7542 1.66666 15.8333V15C1.66666 14.0792 2.41249 13.3333 3.33332 13.3333H4.99999C5.92082 13.3333 6.66666 14.0792 6.66666 15V15.8333C6.66666 16.7542 5.92082 17.5 4.99999 17.5Z" fill="url(#paint0_linear_668_33093)"/>
<path d="M17.5 2.08667C17.5008 1.85417 17.3125 1.66583 17.08 1.66667L14.5458 1.67833C14.2083 1.68 14.04 2.08833 14.2792 2.3275L16.84 4.88833C17.0792 5.1275 17.4875 4.95917 17.4892 4.62167L17.5 2.08667Z" fill="#BDCEEE"/>
<path d="M3.33333 10C3.11999 10 2.90666 9.91833 2.74416 9.75584C2.41833 9.43 2.41833 8.90334 2.74416 8.5775L5.24416 6.0775C5.46749 5.85417 5.79666 5.77584 6.09666 5.87584L8.10833 6.54667L10.2442 4.41084C10.4675 4.1875 10.7975 4.11 11.0967 4.20917L13.1083 4.88L15.2442 2.74417C15.57 2.41834 16.0967 2.41834 16.4225 2.74417C16.7483 3.07 16.7483 3.59667 16.4225 3.9225L13.9225 6.4225C13.6992 6.64584 13.37 6.72417 13.07 6.62417L11.0583 5.95334L8.92249 8.08917C8.69916 8.3125 8.36916 8.39 8.06999 8.29084L6.05833 7.62L3.92249 9.75584C3.75999 9.91833 3.54666 10 3.33333 10Z" fill="#BDCEEE"/>
<defs>
<linearGradient id="paint0_linear_668_33093" x1="10" y1="8" x2="17" y2="18" gradientUnits="userSpaceOnUse">
<stop stop-color="#AEC2F0"/>
<stop offset="1" stop-color="#5A81F5"/>
</linearGradient>
</defs>
</svg>
