<svg width="20" height="20" viewBox="0 0 20 20" fill="none" xmlns="http://www.w3.org/2000/svg">
<g clip-path="url(#clip0_403_31603)">
<path d="M10.4167 18.3334C10.4092 18.3334 10.4017 18.3334 10.395 18.3334C9.84833 18.3234 9.37167 17.9601 9.2175 17.4359L6.58833 8.49427L5.81667 13.1218C5.71583 13.7251 5.19417 14.1668 4.58333 14.1668H1.25C0.56 14.1668 0 13.6076 0 12.9168C0 12.2259 0.56 11.6668 1.25 11.6668H3.52417L5.0175 2.71094C5.11333 2.13677 5.59333 1.70427 6.175 1.66927C6.75667 1.63427 7.285 2.00511 7.45 2.56427L10.4917 12.9076L12.5642 6.68927C12.7325 6.18261 13.2042 5.83927 13.7367 5.83344C13.7408 5.83344 13.7458 5.83344 13.75 5.83344C14.2783 5.83344 14.7492 6.16511 14.9275 6.66344L16.7142 11.6668H18.75C19.44 11.6668 20 12.2259 20 12.9168C20 13.6076 19.44 14.1668 18.75 14.1668H15.8333C15.305 14.1668 14.8342 13.8351 14.6558 13.3368L13.7908 10.9134L11.6025 17.4776C11.4325 17.9893 10.9542 18.3334 10.4167 18.3334Z" fill="#DBDBDB"/>
<path d="M18.75 11.6666H16.7142L14.9275 6.66325C14.7492 6.16492 14.2783 5.83325 13.75 5.83325C13.7458 5.83325 13.7408 5.83325 13.7367 5.83325C13.2033 5.83909 12.7325 6.18242 12.5642 6.68825L10.4917 12.9066L10.1158 18.2833C10.2067 18.3058 10.2975 18.3316 10.395 18.3333C10.4025 18.3333 10.41 18.3333 10.4167 18.3333C10.9542 18.3333 11.4325 17.9891 11.6025 17.4783L13.7908 10.9141L14.6558 13.3374C14.8342 13.8349 15.305 14.1666 15.8333 14.1666H18.75C19.44 14.1666 20 13.6074 20 12.9166C20 12.2258 19.44 11.6666 18.75 11.6666Z" fill="#6C6C6C"/>
</g>
<defs>
<clipPath id="clip0_403_31603">
<rect width="20" height="20" fill="white"/>
</clipPath>
</defs>
</svg>
