<svg width="20" height="20" viewBox="0 0 20 20" fill="none" xmlns="http://www.w3.org/2000/svg">
<g clip-path="url(#clip0_403_31597)">
<path d="M6.24998 8.33333C7.86081 8.33333 9.16665 7.0275 9.16665 5.41667C9.16665 3.80584 7.86081 2.5 6.24998 2.5C4.63915 2.5 3.33331 3.80584 3.33331 5.41667C3.33331 7.0275 4.63915 8.33333 6.24998 8.33333Z" fill="#DBDBDB"/>
<path d="M13.75 8.33333C15.3608 8.33333 16.6666 7.0275 16.6666 5.41667C16.6666 3.80584 15.3608 2.5 13.75 2.5C12.1391 2.5 10.8333 3.80584 10.8333 5.41667C10.8333 7.0275 12.1391 8.33333 13.75 8.33333Z" fill="#6C6C6C"/>
<path d="M12.5 11.6666V17.5H4.58335C3.78335 17.5 3.05002 17.175 2.52502 16.6416C1.99169 16.1166 1.66669 15.3833 1.66669 14.5833C1.66669 12.975 2.97502 11.6666 4.58335 11.6666H12.5Z" fill="#DBDBDB"/>
<path d="M18.3333 14.5833C18.3333 16.1916 17.025 17.5 15.4167 17.5H8.75C10.3583 17.5 11.6667 16.1916 11.6667 14.5833C11.6667 13.7833 11.3417 13.05 10.8083 12.525C10.2833 11.9916 9.55 11.6666 8.75 11.6666H15.4167C17.025 11.6666 18.3333 12.975 18.3333 14.5833Z" fill="#6C6C6C"/>
</g>
<defs>
<clipPath id="clip0_403_31597">
<rect width="20" height="20" fill="white"/>
</clipPath>
</defs>
</svg>
