<svg width="20" height="20" viewBox="0 0 20 20" fill="none" xmlns="http://www.w3.org/2000/svg">
<g clip-path="url(#clip0_403_31608)">
<path d="M10 18.3334C14.6024 18.3334 18.3334 14.6025 18.3334 10.0001C18.3334 5.39771 14.6024 1.66675 10 1.66675C5.39765 1.66675 1.66669 5.39771 1.66669 10.0001C1.66669 14.6025 5.39765 18.3334 10 18.3334Z" fill="#DBDBDB"/>
<path d="M5.8333 6.55738C5.8333 5.91488 5.0583 5.59154 4.60164 6.04404L1.35747 9.25738C0.944971 9.66655 0.944971 10.3332 1.35747 10.7424L4.60164 13.9557C5.0583 14.4082 5.8333 14.0849 5.8333 13.4424V6.55738Z" fill="#6C6C6C"/>
<path d="M10 8.33325H3.50085V11.6666H10V8.33325Z" fill="#6C6C6C"/>
<path d="M9.99998 11.6666C10.9205 11.6666 11.6666 10.9204 11.6666 9.99992C11.6666 9.07944 10.9205 8.33325 9.99998 8.33325C9.07951 8.33325 8.33331 9.07944 8.33331 9.99992C8.33331 10.9204 9.07951 11.6666 9.99998 11.6666Z" fill="#6C6C6C"/>
</g>
<defs>
<clipPath id="clip0_403_31608">
<rect width="20" height="20" fill="white"/>
</clipPath>
</defs>
</svg>
