<svg width="20" height="20" viewBox="0 0 20 20" fill="none" xmlns="http://www.w3.org/2000/svg">
<g clip-path="url(#clip0_403_31594)">
<path d="M13.3333 15.7733C13.8983 15.4475 14.5491 15.42 15.1125 15.6366C15.5825 15.8175 16.12 15.6675 16.4391 15.2783C17.0083 14.5841 17.4675 13.7966 17.79 12.9408C17.9741 12.4516 17.8 11.9141 17.4008 11.5758C16.9516 11.1975 16.6666 10.6341 16.6666 9.99996C16.6666 9.36579 16.9516 8.80246 17.4 8.42246C17.7991 8.08413 17.9741 7.54746 17.7891 7.05746C17.4666 6.20246 17.0083 5.41413 16.4383 4.71996C16.1191 4.33079 15.5816 4.18079 15.1116 4.36163C14.5491 4.57996 13.8983 4.55246 13.3333 4.22663C12.7666 3.89913 12.4166 3.34663 12.325 2.74746C12.25 2.25746 11.8616 1.86579 11.3725 1.78246C10.9258 1.70663 10.4675 1.66663 9.99998 1.66663C9.53248 1.66663 9.07415 1.70663 8.62748 1.78246C8.13832 1.86579 7.75082 2.25746 7.67498 2.74746C7.58332 3.34663 7.23332 3.89913 6.66665 4.22663C6.10165 4.55246 5.45082 4.57996 4.88748 4.36246C4.41748 4.18163 3.87998 4.33163 3.56082 4.72079C2.99165 5.41496 2.53332 6.20246 2.21082 7.05829C2.02582 7.54746 2.20082 8.08496 2.59998 8.42246C3.04832 8.80246 3.33332 9.36579 3.33332 9.99996C3.33332 10.6341 3.04832 11.1975 2.59998 11.5775C2.20082 11.9158 2.02582 12.4525 2.21082 12.9425C2.53332 13.7975 2.99165 14.5858 3.56165 15.28C3.88082 15.6691 4.41832 15.8191 4.88832 15.6383C5.45082 15.42 6.10165 15.4475 6.66665 15.7733C7.23332 16.1008 7.58332 16.6533 7.67498 17.2525C7.74998 17.7425 8.13832 18.1341 8.62748 18.2175C9.07415 18.2933 9.53248 18.3333 9.99998 18.3333C10.4675 18.3333 10.9258 18.2933 11.3725 18.2175C11.8616 18.135 12.25 17.7433 12.325 17.2525C12.4166 16.6533 12.7666 16.1008 13.3333 15.7733Z" fill="#DBDBDB"/>
<path d="M10 6.66663C8.15919 6.66663 6.66669 8.15913 6.66669 9.99996C6.66669 11.8408 8.15919 13.3333 10 13.3333C11.8409 13.3333 13.3334 11.8408 13.3334 9.99996C13.3334 8.15913 11.8409 6.66663 10 6.66663Z" fill="#6C6C6C"/>
</g>
<defs>
<clipPath id="clip0_403_31594">
<rect width="20" height="20" fill="white"/>
</clipPath>
</defs>
</svg>
