<svg width="100" height="90" viewBox="0 0 100 90" fill="none" xmlns="http://www.w3.org/2000/svg">
<path d="M8.88966 47.5566L32.7838 60.8229L82.8445 29.7556L51.6728 20.1961C50.5888 19.8637 49.4328 19.8452 48.3387 20.1428L11.1859 30.2493C8.89586 30.8722 7.18822 32.7864 6.82966 35.1324L5.87102 41.4044C5.49194 43.8845 6.69609 46.3387 8.88966 47.5566Z" fill="url(#paint0_linear_197_9418)"/>
<path d="M30.9085 47.1294C30.9791 44.4736 32.788 42.1804 35.3543 41.4932L79.4995 29.6711C83.3977 28.6272 87.1943 31.6519 87.0476 35.6848L86.7438 44.0437C86.6489 46.6529 84.8776 48.9012 82.3631 49.6042L38.2862 61.9258C34.3968 63.0131 30.5656 60.025 30.6729 55.9879L30.9085 47.1294Z" fill="#4671F6"/>
<defs>
<linearGradient id="paint0_linear_197_9418" x1="51.5688" y1="-12.3874" x2="-3.7446" y2="65.5742" gradientUnits="userSpaceOnUse">
<stop stop-color="#5780FF"/>
<stop offset="0.536458" stop-color="#698EFF"/>
<stop offset="0.635417" stop-color="#A4BCFD"/>
<stop offset="1" stop-color="#A4BCFD"/>
</linearGradient>
</defs>
</svg>
