<svg width="14" height="14" viewBox="0 0 14 14" fill="none" xmlns="http://www.w3.org/2000/svg">
<g clip-path="url(#clip0_197_9649)">
<path d="M3.08002 8.6799C2.55817 8.6799 2.29724 8.6799 2.09142 8.59465C1.81699 8.48098 1.59895 8.26294 1.48528 7.98851C1.40002 7.78268 1.40002 7.52176 1.40002 6.9999V3.1919C1.40002 2.56464 1.40002 2.25101 1.5221 2.01143C1.62948 1.80069 1.80081 1.62935 2.01156 1.52198C2.25114 1.3999 2.56477 1.3999 3.19202 1.3999H7.00003C7.52188 1.3999 7.78281 1.3999 7.98863 1.48516C8.26306 1.59883 8.4811 1.81687 8.59477 2.0913C8.68003 2.29712 8.68003 2.55805 8.68003 3.0799M7.11202 12.5999H10.808C11.4353 12.5999 11.7489 12.5999 11.9885 12.4778C12.1992 12.3705 12.3706 12.1991 12.478 11.9884C12.6 11.7488 12.6 11.4352 12.6 10.8079V7.1119C12.6 6.48464 12.6 6.17101 12.478 5.93143C12.3706 5.72069 12.1992 5.54935 11.9885 5.44198C11.7489 5.3199 11.4353 5.3199 10.808 5.3199H7.11202C6.48477 5.3199 6.17114 5.3199 5.93156 5.44198C5.72081 5.54935 5.54948 5.72069 5.4421 5.93143C5.32002 6.17101 5.32002 6.48464 5.32002 7.1119V10.8079C5.32002 11.4352 5.32002 11.7488 5.4421 11.9884C5.54948 12.1991 5.72081 12.3705 5.93156 12.4778C6.17114 12.5999 6.48477 12.5999 7.11202 12.5999Z" stroke="#474B53" stroke-linecap="round" stroke-linejoin="round"/>
</g>
<defs>
<clipPath id="clip0_197_9649">
<rect width="14" height="14" fill="white"/>
</clipPath>
</defs>
</svg>
