<svg width="20" height="21" viewBox="0 0 20 21" fill="none" xmlns="http://www.w3.org/2000/svg">
<path opacity="0.3" d="M12.2392 11.5917C11.8326 12.4226 10.9876 13.0001 10.0001 13.0001C8.61925 13.0001 7.50008 11.8809 7.50008 10.5001C7.50008 9.51258 8.07758 8.66758 8.90841 8.26091L6.23008 5.58258C3.07091 7.22425 1.66675 10.5001 1.66675 10.5001C1.66675 10.5001 4.16675 16.3334 10.0001 16.3334C12.1676 16.3334 13.8726 15.5267 15.1626 14.5151L12.2392 11.5917ZM11.5892 8.58508C11.7084 8.68341 11.8159 8.79175 11.9151 8.91092L16.3851 13.3809C17.7167 11.9351 18.3334 10.5001 18.3334 10.5001C18.3334 10.5001 15.8334 4.66675 10.0001 4.66675C9.25675 4.66675 8.56925 4.76341 7.93258 4.92841L11.5892 8.58508Z" fill="#4671F6"/>
<path d="M2.32715 4.00586L3.50564 2.82733L17.6728 16.994L16.4943 18.1725L2.32715 4.00586Z" fill="#4671F6"/>
<path d="M10.1775 7.18489L13.315 10.3224C13.2242 8.62822 11.8717 7.27572 10.1775 7.18489ZM14.5575 13.9207C13.3983 14.8057 11.8917 15.4999 10 15.4999C5.50334 15.4999 3.19418 11.6757 2.59168 10.5024C3.03334 9.65656 4.40751 7.38239 6.85168 6.21489L5.60751 4.97156C2.42084 6.74322 0.980843 9.98406 0.900843 10.1716L0.76001 10.4999L0.900843 10.8282C1.01168 11.0874 3.69001 17.1666 10 17.1666C12.445 17.1666 14.3383 16.2516 15.755 15.1182L14.5575 13.9207Z" fill="#4671F6"/>
<path d="M19.0992 10.1716C18.9884 9.91242 16.3101 3.83325 10.0001 3.83325C8.99091 3.83325 8.08425 4.00075 7.25675 4.26325L8.62841 5.63492C9.06258 5.55242 9.51591 5.49992 10.0001 5.49992C14.4967 5.49992 16.8059 9.32408 17.4084 10.4974C17.1634 10.9666 16.6276 11.8766 15.7867 12.7933L16.9751 13.9816C18.3751 12.4666 19.0451 10.9541 19.0992 10.8283L19.2401 10.4999L19.0992 10.1716ZM6.66675 10.4999C6.66675 12.3383 8.16175 13.8333 10.0001 13.8333C11.2109 13.8333 12.2626 13.1783 12.8459 12.2099L11.5942 10.9583C11.3942 11.6533 10.7592 12.1666 10.0001 12.1666C9.08091 12.1666 8.33341 11.4191 8.33341 10.4999C8.33341 9.74075 8.84675 9.10575 9.54175 8.90575L8.29008 7.65409C7.32175 8.23742 6.66675 9.28909 6.66675 10.4999Z" fill="#4671F6"/>
</svg>
