<svg width="100" height="143" viewBox="0 0 100 143" fill="none" xmlns="http://www.w3.org/2000/svg">
<path d="M8.88966 100.557L32.7838 113.823L82.8445 82.7556L51.6728 73.1961C50.5888 72.8637 49.4328 72.8452 48.3387 73.1428L11.1859 83.2493C8.89586 83.8722 7.18822 85.7864 6.82966 88.1324L5.87102 94.4044C5.49194 96.8845 6.69609 99.3387 8.88966 100.557Z" fill="url(#paint0_linear_610_31054)"/>
<path d="M30.9085 100.129C30.9791 97.4736 32.788 95.1804 35.3543 94.4932L79.4995 82.6711C83.3977 81.6272 87.1943 84.6519 87.0476 88.6848L86.7438 97.0437C86.6489 99.6529 84.8776 101.901 82.3631 102.604L38.2862 114.926C34.3968 116.013 30.5656 113.025 30.6729 108.988L30.9085 100.129Z" fill="#4671F6"/>
<g opacity="0.3">
<path d="M8.88966 73.5566L32.7838 86.8229L82.8445 55.7556L51.6728 46.1961C50.5888 45.8637 49.4328 45.8452 48.3387 46.1428L11.1859 56.2493C8.89586 56.8722 7.18822 58.7864 6.82966 61.1324L5.87102 67.4044C5.49194 69.8845 6.69609 72.3387 8.88966 73.5566Z" fill="url(#paint1_linear_610_31054)"/>
<path d="M30.9085 73.1294C30.9791 70.4736 32.788 68.1804 35.3543 67.4932L79.4995 55.6711C83.3977 54.6272 87.1943 57.6519 87.0476 61.6848L86.7438 70.0437C86.6489 72.6529 84.8776 74.9012 82.3631 75.6042L38.2862 87.9258C34.3968 89.0131 30.5656 86.025 30.6729 81.9879L30.9085 73.1294Z" fill="#4671F6"/>
</g>
<path d="M8.88966 47.5566L32.7838 60.8229L82.8445 29.7556L51.6728 20.1961C50.5888 19.8637 49.4328 19.8452 48.3387 20.1428L11.1859 30.2493C8.89586 30.8722 7.18822 32.7864 6.82966 35.1324L5.87102 41.4044C5.49194 43.8845 6.69609 46.3387 8.88966 47.5566Z" fill="url(#paint2_linear_610_31054)"/>
<path d="M30.9085 47.1294C30.9791 44.4736 32.788 42.1804 35.3543 41.4932L79.4995 29.6711C83.3977 28.6272 87.1942 31.6519 87.0476 35.6848L86.7438 44.0437C86.6489 46.6529 84.8776 48.9012 82.3631 49.6042L38.2862 61.9258C34.3968 63.0131 30.5656 60.025 30.6729 55.9879L30.9085 47.1294Z" fill="#4671F6"/>
<defs>
<linearGradient id="paint0_linear_610_31054" x1="51.5688" y1="40.6126" x2="-3.7446" y2="118.574" gradientUnits="userSpaceOnUse">
<stop stop-color="#5780FF"/>
<stop offset="0.536458" stop-color="#698EFF"/>
<stop offset="0.635417" stop-color="#A4BCFD"/>
<stop offset="1" stop-color="#A4BCFD"/>
</linearGradient>
<linearGradient id="paint1_linear_610_31054" x1="51.5688" y1="13.6126" x2="-3.7446" y2="91.5742" gradientUnits="userSpaceOnUse">
<stop stop-color="#5780FF"/>
<stop offset="0.536458" stop-color="#698EFF"/>
<stop offset="0.635417" stop-color="#A4BCFD"/>
<stop offset="1" stop-color="#A4BCFD"/>
</linearGradient>
<linearGradient id="paint2_linear_610_31054" x1="51.5688" y1="-12.3874" x2="-3.7446" y2="65.5742" gradientUnits="userSpaceOnUse">
<stop stop-color="#5780FF"/>
<stop offset="0.536458" stop-color="#698EFF"/>
<stop offset="0.635417" stop-color="#A4BCFD"/>
<stop offset="1" stop-color="#A4BCFD"/>
</linearGradient>
</defs>
</svg>
