<svg width="20" height="20" viewBox="0 0 20 20" fill="none" xmlns="http://www.w3.org/2000/svg">
<path d="M16.9907 3.00913C15.2007 1.21913 12.299 1.21913 10.509 3.00913C10.3665 3.15163 9.81817 3.69996 9.67567 3.84246C8.38567 5.13246 8.03984 6.99746 8.60984 8.61079C6.9965 8.04079 5.13234 8.38579 3.84234 9.67579C3.69984 9.81829 3.1515 10.3666 3.009 10.5091C1.219 12.2991 1.219 15.2008 3.009 16.9908C4.799 18.7808 7.70067 18.7808 9.49067 16.9908C9.63317 16.8483 10.1815 16.3 10.324 16.1575C11.614 14.8675 11.9598 13.0025 11.3898 11.3891C13.0032 11.9591 14.8673 11.6141 16.1573 10.3241C16.2998 10.1816 16.8482 9.63329 16.9907 9.49079C18.7807 7.70079 18.7807 4.79913 16.9907 3.00913Z" fill="#8BABF8"/>
<path d="M13.6783 6.32162C13.0275 5.67079 11.9725 5.67079 11.3216 6.32162L6.32162 11.3216C5.67079 11.9725 5.67079 13.0275 6.32162 13.6783C6.97245 14.3291 8.02745 14.3291 8.67829 13.6783L13.6783 8.67829C14.3291 8.02745 14.3291 6.97245 13.6783 6.32162Z" fill="#4671F6"/>
</svg>
