<svg width="20" height="21" viewBox="0 0 20 21" fill="none" xmlns="http://www.w3.org/2000/svg">
<path d="M15.3332 8.8999C14.9088 8.8999 14.5019 9.06847 14.2018 9.36853C13.9018 9.66859 13.7332 10.0756 13.7332 10.4999C13.7332 10.9242 13.9018 11.3312 14.2018 11.6313C14.5019 11.9313 14.9088 12.0999 15.3332 12.0999C15.7575 12.0999 16.1645 11.9313 16.4646 11.6313C16.7646 11.3312 16.9332 10.9242 16.9332 10.4999C16.9332 10.0756 16.7646 9.66859 16.4646 9.36853C16.1645 9.06847 15.7575 8.8999 15.3332 8.8999ZM9.99986 8.8999C9.57551 8.8999 9.16855 9.06847 8.86849 9.36853C8.56843 9.66859 8.39986 10.0756 8.39986 10.4999C8.39986 10.9242 8.56843 11.3312 8.86849 11.6313C9.16855 11.9313 9.57551 12.0999 9.99986 12.0999C10.4242 12.0999 10.8312 11.9313 11.1312 11.6313C11.4313 11.3312 11.5999 10.9242 11.5999 10.4999C11.5999 10.0756 11.4313 9.66859 11.1312 9.36853C10.8312 9.06847 10.4242 8.8999 9.99986 8.8999ZM4.66653 8.8999C4.24218 8.8999 3.83522 9.06847 3.53516 9.36853C3.2351 9.66859 3.06653 10.0756 3.06653 10.4999C3.06653 10.9242 3.2351 11.3312 3.53516 11.6313C3.83522 11.9313 4.24218 12.0999 4.66653 12.0999C5.09087 12.0999 5.49784 11.9313 5.7979 11.6313C6.09796 11.3312 6.26653 10.9242 6.26653 10.4999C6.26653 10.0756 6.09796 9.66859 5.7979 9.36853C5.49784 9.06847 5.09087 8.8999 4.66653 8.8999Z" fill="#474B53"/>
</svg>
