<svg width="20" height="21" viewBox="0 0 20 21" fill="none" xmlns="http://www.w3.org/2000/svg">
<g clip-path="url(#clip0_374_4214)">
<path d="M9.98958 2.4908C9.813 2.49356 9.64473 2.56627 9.52169 2.69297C9.39866 2.81966 9.33092 2.99 9.33333 3.16659V10.4999C9.33209 10.5883 9.34841 10.676 9.38135 10.7579C9.41429 10.8399 9.4632 10.9145 9.52523 10.9775C9.58726 11.0404 9.66117 11.0903 9.74268 11.1244C9.82418 11.1585 9.91165 11.1761 10 11.1761C10.0884 11.1761 10.1758 11.1585 10.2573 11.1244C10.3388 11.0903 10.4127 11.0404 10.4748 10.9775C10.5368 10.9145 10.5857 10.8399 10.6187 10.7579C10.6516 10.676 10.6679 10.5883 10.6667 10.4999V3.16659C10.6679 3.07739 10.6512 2.98886 10.6176 2.90623C10.584 2.82361 10.5341 2.74856 10.471 2.68555C10.4079 2.62254 10.3327 2.57283 10.25 2.53938C10.1673 2.50593 10.0788 2.48941 9.98958 2.4908ZM6.66406 3.30851C6.55915 3.3101 6.4561 3.33642 6.36328 3.38534C3.77635 4.70934 2 7.39847 2 10.4999C2 14.9102 5.58969 18.4999 10 18.4999C14.4103 18.4999 18 14.9102 18 10.4999C18 7.39847 16.2236 4.70934 13.6367 3.38534C13.4792 3.30487 13.2963 3.29026 13.128 3.34471C12.9598 3.39917 12.82 3.51823 12.7396 3.6757C12.6591 3.83317 12.6445 4.01616 12.699 4.1844C12.7534 4.35265 12.8725 4.49237 13.03 4.57284C15.187 5.67683 16.6667 7.9067 16.6667 10.4999C16.6667 14.1896 13.6897 17.1666 10 17.1666C6.31031 17.1666 3.33333 14.1896 3.33333 10.4999C3.33333 7.9067 4.81298 5.67683 6.97005 4.57284C7.10573 4.50576 7.21454 4.39451 7.2786 4.25739C7.34267 4.12027 7.35818 3.96543 7.32258 3.81833C7.28697 3.67123 7.20238 3.54061 7.08271 3.44796C6.96303 3.35531 6.81539 3.30613 6.66406 3.30851Z" fill="#474B53"/>
</g>
<defs>
<clipPath id="clip0_374_4214">
<rect width="20" height="20" fill="white" transform="translate(0 0.5)"/>
</clipPath>
</defs>
</svg>
