<svg width="20" height="21" viewBox="0 0 20 21" fill="none" xmlns="http://www.w3.org/2000/svg">
<g clip-path="url(#clip0_374_4220)">
<path d="M16.6537 3.16019C16.6288 3.16097 16.604 3.16315 16.5794 3.1667H12C11.9117 3.16545 11.824 3.18177 11.742 3.21471C11.66 3.24766 11.5854 3.29656 11.5225 3.35859C11.4596 3.42062 11.4096 3.49454 11.3755 3.57604C11.3414 3.65755 11.3238 3.74502 11.3238 3.83337C11.3238 3.92172 11.3414 4.00919 11.3755 4.09069C11.4096 4.1722 11.4596 4.24611 11.5225 4.30814C11.5854 4.37017 11.66 4.41908 11.742 4.45202C11.824 4.48496 11.9117 4.50128 12 4.50003H15.0573L4.00001 15.5573V12.5C4.00123 12.4108 3.98454 12.3223 3.95093 12.2397C3.91732 12.1571 3.86747 12.082 3.80433 12.019C3.7412 11.956 3.66606 11.9063 3.58337 11.8728C3.50068 11.8394 3.41211 11.8229 3.32292 11.8243C3.14634 11.827 2.97807 11.8997 2.85503 12.0264C2.732 12.1531 2.66426 12.3234 2.66667 12.5V17.0651C2.64901 17.17 2.65668 17.2775 2.68904 17.3788C2.7214 17.4801 2.77751 17.5722 2.85269 17.6473C2.92787 17.7225 3.01995 17.7786 3.12123 17.811C3.22251 17.8434 3.33006 17.851 3.4349 17.8334H8.00001C8.08835 17.8346 8.17606 17.8183 8.25804 17.7854C8.34002 17.7524 8.41463 17.7035 8.47754 17.6415C8.54046 17.5794 8.59041 17.5055 8.62451 17.424C8.65861 17.3425 8.67617 17.2551 8.67617 17.1667C8.67617 17.0784 8.65861 16.9909 8.62451 16.9094C8.59041 16.8279 8.54046 16.754 8.47754 16.6919C8.41463 16.6299 8.34002 16.581 8.25804 16.548C8.17606 16.5151 8.08835 16.4988 8.00001 16.5H4.94272L16 5.44274V8.50003C15.9988 8.58838 16.0151 8.67608 16.048 8.75806C16.081 8.84004 16.1299 8.91466 16.1919 8.97757C16.2539 9.04048 16.3278 9.09044 16.4094 9.12454C16.4909 9.15864 16.5783 9.1762 16.6667 9.1762C16.755 9.1762 16.8425 9.15864 16.924 9.12454C17.0055 9.09044 17.0794 9.04048 17.1414 8.97757C17.2035 8.91466 17.2524 8.84004 17.2853 8.75806C17.3183 8.67608 17.3346 8.58838 17.3333 8.50003V3.918C17.3466 3.82202 17.3388 3.7243 17.3105 3.63164C17.2821 3.53898 17.2339 3.45361 17.1692 3.38147C17.1045 3.30934 17.0249 3.25217 16.9359 3.21396C16.8468 3.17574 16.7505 3.15739 16.6537 3.16019Z" fill="#474B53"/>
</g>
<defs>
<clipPath id="clip0_374_4220">
<rect width="20" height="20" fill="white" transform="translate(0 0.5)"/>
</clipPath>
</defs>
</svg>
